<?xml version="1.0" encoding="UTF-8" standalone="no"?>
<svg
   xmlns:i="http://ns.adobe.com/AdobeIllustrator/10.0/"
   xmlns:dc="http://purl.org/dc/elements/1.1/"
   xmlns:cc="http://creativecommons.org/ns#"
   xmlns:rdf="http://www.w3.org/1999/02/22-rdf-syntax-ns#"
   xmlns:svg="http://www.w3.org/2000/svg"
   xmlns="http://www.w3.org/2000/svg"
   xmlns:xlink="http://www.w3.org/1999/xlink"
   xmlns:sodipodi="http://sodipodi.sourceforge.net/DTD/sodipodi-0.dtd"
   xmlns:inkscape="http://www.inkscape.org/namespaces/inkscape"
   height="660"
   width="600"
   version="1.0"
   id="svg2"
   sodipodi:version="0.32"
   inkscape:version="0.46"
   sodipodi:docname="0prov.svg"
   sodipodi:docbase="C:\Documents and Settings\Bruno Vallette\Mes documents\Perso\Wikipédia Blasons\Familles BVA"
   inkscape:export-filename="/Users/olivier/Desktop/Blason Rouge/Blason_Vide_3D.png"
   inkscape:export-xdpi="144"
   inkscape:export-ydpi="144"
   inkscape:output_extension="org.inkscape.output.svg.inkscape">
  <metadata
     id="metadata49">
    <rdf:RDF>
      <cc:Work
         rdf:about="">
        <dc:format>image/svg+xml</dc:format>
        <dc:type
           rdf:resource="http://purl.org/dc/dcmitype/StillImage" />
        <dc:title>Gabarit d'un blason en pointe pour le projet Blasons de Wikipédia</dc:title>
        <dc:date>03-AUG-2006</dc:date>
        <dc:creator>
          <cc:Agent>
            <dc:title>Jérôme BLUM (wagner51)</dc:title>
          </cc:Agent>
        </dc:creator>
        <cc:license
           rdf:resource="http://web.resource.org/cc/PublicDomain" />
        <dc:language>fr</dc:language>
        <dc:subject>
          <rdf:Bag>
            <rdf:li>gabarit modèle blason projet wikipédia</rdf:li>
          </rdf:Bag>
        </dc:subject>
      </cc:Work>
      <cc:License
         rdf:about="http://web.resource.org/cc/PublicDomain">
        <cc:permits
           rdf:resource="http://web.resource.org/cc/Reproduction" />
        <cc:permits
           rdf:resource="http://web.resource.org/cc/Distribution" />
        <cc:permits
           rdf:resource="http://web.resource.org/cc/DerivativeWorks" />
      </cc:License>
    </rdf:RDF>
  </metadata>
  <sodipodi:namedview
     inkscape:window-height="940"
     inkscape:window-width="1499"
     inkscape:pageshadow="2"
     inkscape:pageopacity="0.0"
     guidetolerance="10.0"
     gridtolerance="10.0"
     objecttolerance="10.0"
     borderopacity="1.0"
     bordercolor="#666666"
     pagecolor="#ffffff"
     id="base"
     showgrid="false"
     height="660px"
     inkscape:zoom="1.0675113"
     inkscape:cx="208.07376"
     inkscape:cy="332.87209"
     inkscape:window-x="49"
     inkscape:window-y="237"
     inkscape:current-layer="layer4"
     showguides="true"
     inkscape:guide-bbox="true">
    <sodipodi:guide
       orientation="1,0"
       position="297.50013,647.50028"
       id="guide2411" />
    <sodipodi:guide
       orientation="0,1"
       position="-42.500018,417.50018"
       id="guide2413" />
  </sodipodi:namedview>
  <desc
     id="desc4">Flag of Canton of Valais (Wallis)</desc>
  <defs
     id="defs6">
    <linearGradient
       id="linearGradient2893">
      <stop
         style="stop-color:white;stop-opacity:0.3137255;"
         offset="0"
         id="stop2895" />
      <stop
         id="stop2897"
         offset="0.19"
         style="stop-color:white;stop-opacity:0.25098041;" />
      <stop
         style="stop-color:#6b6b6b;stop-opacity:0.1254902;"
         offset="0.60000002"
         id="stop2901" />
      <stop
         style="stop-color:black;stop-opacity:0.1254902;"
         offset="1"
         id="stop2899" />
    </linearGradient>
    <radialGradient
       inkscape:collect="always"
       xlink:href="#linearGradient2893"
       id="radialGradient3163"
       gradientUnits="userSpaceOnUse"
       gradientTransform="matrix(1.353218,0,0,1.348928,-77.62935,-85.74693)"
       cx="221.44487"
       cy="226.33101"
       fx="221.44487"
       fy="226.33101"
       r="300" />
  </defs>
  <g
     inkscape:groupmode="layer"
     id="layer3"
     inkscape:label="Fond écu"
     style="display:inline"
     sodipodi:insensitive="true">
    <path
       id="path2855"
       style="fill:#e20909;fill-opacity:1;fill-rule:evenodd;stroke:#000000;stroke-width:3;stroke-linecap:butt;stroke-linejoin:miter;stroke-miterlimit:4;stroke-dasharray:none;stroke-opacity:1"
       d="M 300,658.5 C 300,658.5 598.50001,546.17969 598.50001,260.72817 C 598.50001,-24.723354 598.50001,2.1764765 598.50001,2.1764765 L 1.5,2.1764765 L 1.5,260.72817 C 1.5,546.17969 300,658.5 300,658.5 z"
       sodipodi:nodetypes="cccccc" />
  </g>
  <g
     inkscape:groupmode="layer"
     id="layer4"
     inkscape:label="Meubles">
    <g
       id="g2712">
      <g
         style="fill:#fcef3c"
         transform="translate(783.38282,5.671922)"
         id="g2535">
        <path
           style="fill:#fcef3c;stroke:#000000;stroke-width:3.91363502;stroke-linecap:round;stroke-linejoin:round;stroke-miterlimit:4;stroke-dasharray:none"
           i:knockout="Off"
           d="M -527.54678,511.82353 L -522.28273,518.84467 C -522.28273,518.84467 -517.60085,519.56759 -518.59544,527.92097 C -518.59544,527.92097 -510.63869,526.49416 -510.63869,516.50962 C -510.63869,511.00756 -515.21635,509.60898 -515.21635,509.60898 L -521.77799,507.95112 L -527.54678,511.82353 z"
           id="path7241" />
        <path
           style="fill:#fcef3c;stroke:#000000;stroke-width:3.91363716;stroke-linecap:round;stroke-linejoin:round;stroke-miterlimit:4;stroke-dasharray:none"
           i:knockout="Off"
           d="M -597.93896,513.27221 L -601.23926,516.09708 C -601.23926,516.09708 -609.07147,516.20555 -612.09941,525.43163 C -612.09941,525.43163 -614.57118,519.21194 -613.52665,514.9367 C -612.84503,512.14502 -610.09867,509.7581 -610.09867,509.7581 L -603.73266,508.63039 L -599.55095,509.97881 L -597.93896,513.27221 z"
           id="path7243" />
        <path
           style="fill:#fcef3c;stroke:#000000;stroke-width:3.91363358;stroke-linecap:round;stroke-linejoin:round;stroke-miterlimit:4;stroke-dasharray:none"
           i:knockout="Off"
           d="M -593.3664,474.93351 L -597.42526,474.18285 C -597.42526,474.18285 -607.68673,473.01245 -613.4208,482.02697 C -613.4208,482.02697 -602.09257,480.81995 -597.91554,484.23515 C -593.73917,487.65 -592.28795,484.73282 -592.28795,484.73282 L -591.65111,478.17376 L -593.3664,474.93351 z"
           id="path7245" />
        <path
           style="fill:#fcef3c;stroke:#000000;stroke-width:3.91363502;stroke-linecap:round;stroke-linejoin:round;stroke-miterlimit:4;stroke-dasharray:none"
           i:knockout="Off"
           d="M -619.28994,507.4649 C -619.28994,507.4649 -618.12803,499.20744 -612.95489,495.60253 C -608.67551,492.62033 -603.11291,492.88347 -603.11291,492.88347 L -598.85472,496.68284 L -600.21899,501.47056 L -601.73502,503.47716 L -604.00228,502.85667 C -604.00284,502.85667 -609.51648,500.0523 -619.28994,507.4649 z"
           id="path7247" />
      </g>
      <path
         id="path7249"
         d="M 205.80699,142.11101 C 205.80699,142.11101 227.23023,140.1481 238.55193,137.29375 C 249.87288,134.43938 256.84025,129.44368 257.18866,124.80487 C 257.53707,120.16606 262.76166,123.02042 262.76166,123.02042 L 266.41992,128.19457 L 260.49778,141.75411 L 235.59048,149.06884 L 213.99304,150.85329 L 206.15465,146.21447 L 205.80699,142.11101 z"
         i:knockout="Off"
         style="fill:#5ab532;stroke:#000000;stroke-width:3.91363502;stroke-linecap:round;stroke-linejoin:round;stroke-miterlimit:4;stroke-dasharray:none" />
      <path
         id="path7251"
         d="M 206.09063,143.10008 C 206.09063,143.10008 206.93113,135.02353 211.87283,133.51589 C 211.87283,133.51589 209.45483,141.37739 210.61097,145.68525 C 211.68374,149.68044 209.66477,146.43944 209.66477,146.43944 L 206.09063,143.10008 z"
         i:knockout="Off"
         style="fill:#5ab532;stroke:#000000;stroke-width:3.91363502;stroke-linecap:round;stroke-linejoin:round;stroke-miterlimit:4;stroke-dasharray:none" />
      <path
         id="path7253"
         d="M 211.9778,108.63881 C 211.9778,108.63881 207.35249,115.31525 207.66739,125.11524 C 207.66739,125.11524 211.45221,115.5303 215.76336,113.70009 L 211.9778,108.63881 z"
         i:knockout="Off"
         style="fill:#5ab532;stroke:#000000;stroke-width:3.91363502;stroke-linecap:round;stroke-linejoin:round;stroke-miterlimit:4;stroke-dasharray:none" />
      <path
         id="path7255"
         d="M 251.94397,139.68445 C 244.91927,127.69279 237.89606,137.28612 230.87137,142.08279 C 223.84742,146.87945 217.21356,139.08506 214.28635,135.88677 C 211.35915,132.68849 201.60454,135.08759 192.62937,142.08279 C 183.65419,149.07799 178.19062,148.2788 173.89809,146.87945 C 166.98803,144.62753 160.82543,148.27803 160.82543,148.27803 C 160.82543,148.27803 160.04523,143.48137 163.75188,141.68244 C 171.58431,137.88247 176.2394,143.08102 182.874,138.68471 C 189.50786,134.28763 202.97061,129.88979 202.97061,129.88979 C 194.19049,132.48793 183.26409,132.48793 178.58147,128.09162 C 169.21619,119.29824 161.60636,123.29495 154.58315,122.89611 C 143.2689,122.2525 141.51049,109.30455 141.51049,109.30455 C 141.51049,109.30455 150.09556,119.29824 160.24177,116.09995 C 170.38722,112.90242 181.38881,118.3145 186.38634,122.29596 C 188.112,123.67014 190.97593,123.99653 194.27685,123.88291 C 186.78165,119.1297 181.60694,108.79971 178.19211,103.90848 C 172.90125,96.329902 155.36334,92.515442 157.11877,85.120652 C 157.11877,85.120652 161.21626,87.918572 173.31294,91.316662 C 178.20849,92.691602 184.66592,95.774742 187.85218,101.67334 C 191.3407,108.12787 197.82046,118.4144 205.07743,122.80231 C 208.62774,122.41874 211.88325,122.23114 214.09131,122.89611 C 220.72516,124.89485 222.09125,133.68824 226.77387,134.68723 C 231.45651,135.68622 238.48046,126.29343 246.87049,126.29343 C 255.26052,126.29343 261.30923,134.88778 261.30923,134.88778 L 258.56368,139.13539 L 252.94525,140.87332 L 251.94397,139.68445 z"
         i:knockout="Off"
         style="fill:#fcef3c;stroke:#000000;stroke-width:3.91363502;stroke-linecap:round;stroke-linejoin:round;stroke-miterlimit:4;stroke-dasharray:none" />
      <path
         id="path7257"
         d="M 214.71144,147.08459 C 214.71144,147.08459 215.23777,137.06878 219.65315,135.23857 C 219.65315,135.23857 218.07639,143.2076 219.65315,147.08459 L 215.76336,147.83878 L 214.71144,147.08459 z"
         i:knockout="Off"
         style="fill:#5ab532;stroke:#000000;stroke-width:3.91363502;stroke-linecap:round;stroke-linejoin:round;stroke-miterlimit:4;stroke-dasharray:none" />
      <path
         id="path7259"
         d="M 229.32512,146.43869 C 229.32512,146.43869 235.31726,141.37663 234.68671,137.06878 C 234.68671,137.06878 236.57912,137.06878 237.41962,139.43737 C 238.66061,142.93308 242.78193,143.09932 242.78193,143.09932 L 240.57461,146.00706 L 229.32512,146.43869 z"
         i:knockout="Off"
         style="fill:#5ab532;stroke:#000000;stroke-width:3.91363502;stroke-linecap:round;stroke-linejoin:round;stroke-miterlimit:4;stroke-dasharray:none" />
      <path
         id="path7261"
         d="M 218.49626,115.85364 C 218.49626,115.85364 214.71144,119.19224 215.44696,127.59289 C 215.44696,127.59289 219.75811,119.62309 224.17274,117.79213 L 221.86046,116.06945 L 218.49626,115.85364 z"
         i:knockout="Off"
         style="fill:#5ab532;stroke:#000000;stroke-width:3.91363502;stroke-linecap:round;stroke-linejoin:round;stroke-miterlimit:4;stroke-dasharray:none" />
      <path
         id="path7263"
         d="M 229.29273,119.76932 C 229.29273,119.76932 232.16018,124.18728 231.92015,128.24805 C 231.92015,128.24805 233.79128,122.28245 236.57366,121.67708 C 239.59882,121.0183 240.13004,116.02183 240.13004,116.02183 L 231.23788,116.52408 L 229.29273,119.76932 z"
         i:knockout="Off"
         style="fill:#5ab532;stroke:#000000;stroke-width:3.91363502;stroke-linecap:round;stroke-linejoin:round;stroke-miterlimit:4;stroke-dasharray:none" />
      <g
         style="fill:#fcef3c;fill-opacity:1"
         transform="matrix(0,0.4310458,-0.4346479,0,386.26301,365.89445)"
         id="g7325">
        <path
           style="opacity:1;fill:#fcef3c;fill-opacity:1;stroke:#000000;stroke-width:9.0416975;stroke-linecap:round;stroke-linejoin:round;stroke-miterlimit:4;stroke-dasharray:none;display:inline"
           i:knockout="Off"
           d="M -240.63038,653.60404 L -228.51929,669.89264 C -228.51929,669.89264 -217.74761,671.56978 -220.03589,690.94909 C -220.03589,690.94909 -201.72967,687.63899 -201.72967,664.47549 C -201.72967,651.71105 -212.26157,648.46643 -212.26157,648.46643 L -227.35804,644.62029 L -240.63038,653.60404 z"
           id="path7327" />
        <path
           style="opacity:1;fill:#fcef3c;fill-opacity:1;stroke:#000000;stroke-width:9.04169846;stroke-linecap:round;stroke-linejoin:round;stroke-miterlimit:4;stroke-dasharray:none;display:inline"
           i:knockout="Off"
           d="M -402.58271,656.9649 L -410.17577,663.51841 C -410.17577,663.51841 -428.19546,663.77006 -435.16188,685.17399 C -435.16188,685.17399 -440.84872,670.74468 -438.44555,660.82641 C -436.87732,654.34989 -430.55875,648.81238 -430.55875,648.81238 L -415.91237,646.19615 L -406.29145,649.3244 L -402.58271,656.9649 z"
           id="path7329" />
        <path
           style="opacity:1;fill:#fcef3c;fill-opacity:1;stroke:#000000;stroke-width:9.04169178;stroke-linecap:round;stroke-linejoin:round;stroke-miterlimit:4;stroke-dasharray:none;display:inline"
           i:knockout="Off"
           d="M -392.06257,568.02149 L -401.40082,566.28004 C -401.40082,566.28004 -425.00956,563.56477 -438.202,584.47789 C -438.202,584.47789 -412.13901,581.67769 -402.52882,589.60074 C -392.9202,597.52298 -389.58136,590.75529 -389.58136,590.75529 L -388.11618,575.5387 L -392.06257,568.02149 z"
           id="path7331" />
        <path
           style="opacity:1;fill:#fcef3c;fill-opacity:1;stroke:#000000;stroke-width:9.0416975;stroke-linecap:round;stroke-linejoin:round;stroke-miterlimit:4;stroke-dasharray:none;display:inline"
           i:knockout="Off"
           d="M -451.70524,643.49228 C -451.70524,643.49228 -449.032,624.33551 -437.13011,615.97234 C -427.28445,609.0538 -414.48648,609.66429 -414.48648,609.66429 L -404.68963,618.47859 L -407.82843,629.58579 L -411.31639,634.24099 L -416.5327,632.8015 C -416.53396,632.8015 -429.2193,626.29553 -451.70524,643.49228 z"
           id="path7333" />
        <path
           sodipodi:nodetypes="cccsccccccccscccsccscccsccc"
           style="opacity:1;fill:#fcef3c;fill-opacity:1;stroke:#000000;stroke-width:9.0416975;stroke-linecap:round;stroke-linejoin:round;stroke-miterlimit:4;stroke-dasharray:none;display:inline"
           i:knockout="Off"
           d="M -192.59436,500.61469 C -169.40371,519.82051 -289.71078,579.21859 -308.20712,602.95886 C -320.33622,608.86127 -324.30357,610.16643 -342.24327,597.43029 C -352.52799,587.48068 -355.35892,580.77356 -364.5227,576.36829 C -376.47877,570.62069 -388.37049,568.79145 -388.37049,568.79145 C -409.16586,587.20623 -394.15809,595.54321 -394.15809,595.54321 C -380.04107,595.7723 -383.48006,588.61371 -367.63016,597.53434 C -351.78022,606.45319 -348.65035,610.80342 -348.65035,610.80342 C -346.9684,616.59385 -337.15843,614.98178 -337.15843,614.98178 C -337.15843,614.98178 -399.17719,596.23195 -415.99502,614.18176 C -425.83325,624.68345 -414.00684,633.28696 -414.00684,633.28696 C -391.58308,619.39204 -355.29292,627.36343 -355.29292,627.36343 C -342.96088,631.41833 -324.40067,622.65379 -327.22799,625.29782 C -329.20977,627.15113 -371.97281,624.91582 -371.97281,624.91582 C -378.70037,626.53431 -414.04145,628.61558 -415.16161,648.30095 C -416.28347,667.98807 -402.3074,661.74652 -402.3074,661.74652 C -400.62545,636.85101 -377.35536,648.21808 -363.30475,644.04134 C -357.75221,642.39076 -347.67359,640.70043 -329.12025,646.8456 C -310.56691,636.42352 -292.88677,665.2969 -287.5497,634.93631 C -273.2545,637.57683 -265.68774,635.26278 -260.6436,642.78875 C -255.59945,650.31473 -235.41601,666.01961 -235.41601,666.01961 C -236.53617,644.01488 -219.16,644.59518 -219.16,644.59518 C -261.08502,619.76248 -283.27877,612.38146 -283.27877,612.38146 C -283.27877,596.15302 -179.89805,549.66055 -150.98799,524.9915 C -133.91534,510.42333 -150.00274,432.01237 -149.04401,401.13152 C -168.37394,418.1691 -188.51627,440.89841 -213.89199,448.39051 C -215.42873,463.29081 -201.74236,481.98433 -192.59436,500.61469 z"
           id="path7335" />
      </g>
      <path
         sodipodi:nodetypes="cccsccccccccccsccscccsscscc"
         id="path2531"
         d="M 336.84154,442.50865 C 347.33256,450.31868 388.27787,498.41998 382.70487,511.29214 C 378.11884,515.1418 376.56033,516.10217 367.70853,511.59895 C 362.37866,507.75937 360.52829,504.81731 356.20913,503.51481 C 350.57389,501.81543 345.34672,501.9783 345.34672,501.9783 C 338.2834,512.51893 345.4677,515.18383 345.4677,515.18383 C 351.4895,514.07544 349.3403,510.97533 356.93621,513.84627 C 364.53197,516.71634 366.27488,518.50484 366.27488,518.50484 C 366.38229,518.72473 366.51134,518.91382 366.65372,519.07713 C 358.34261,518.56648 341.97805,518.5505 337.97908,525.91472 C 334.80992,531.75163 340.67224,534.82722 340.67224,534.82722 C 345.08679,530.2278 351.806,528.31216 357.08114,527.51061 C 353.23083,529.10007 340.29416,533.19513 341.62643,542.05237 C 343.04698,551.50106 348.38306,547.343 348.38306,547.343 C 346.69861,535.37185 357.68144,538.75889 363.25042,535.56332 C 365.45118,534.30049 369.57375,532.63216 378.05114,533.95155 C 384.9319,527.40103 395.22547,539.59442 394.56775,524.71205 C 400.89768,524.7338 403.88976,522.97797 406.75883,526.1181 C 409.6279,529.25824 419.72775,534.97055 419.72775,534.97055 C 417.13101,524.61423 424.57099,523.40079 424.57099,523.40079 C 404.35964,515.21947 394.21284,513.62504 394.21284,513.62504 C 396.55205,503.47145 371.46796,442.87945 365.73681,431.4908 C 309.44196,319.62435 252.19606,379.49434 336.84154,442.50865 z M 376.7749,523.29877 C 376.88789,523.28637 376.90159,523.3569 376.78324,523.54436 C 376.66099,523.73803 375.92734,523.99142 374.82774,524.26566 C 375.82475,523.73384 376.53902,523.32461 376.7749,523.29877 z"
         style="fill:#fcef3c;fill-opacity:1;stroke:#000000;stroke-width:4.14537191;stroke-linecap:round;stroke-linejoin:round;stroke-miterlimit:4;stroke-dasharray:none" />
      <path
         sodipodi:nodetypes="csccccsscccsccsccccccccccsccsccccccccscscsccccscscsccsscssccsscscccsccsccccccccccccccccssscsscsccccccccsccccccccscscc"
         id="path7265"
         d="M 329.6308,435.71454 C 326.78353,432.6522 309.56724,474.40126 353.38973,475.32537 C 372.70093,475.7326 397.57408,427.05989 362.33125,408.34069 C 327.08842,389.62149 331.31513,395.75671 331.36446,395.76658 C 331.41379,395.77645 323.66045,398.42471 320.13919,396.21494 C 317.5596,398.60344 320.28741,396.89093 316.94723,399.04367 C 307.77282,407.47047 295.6654,404.03208 277.58446,413.82047 C 267.19939,419.44261 288.11549,449.58138 280.69491,455.86094 C 268.12923,466.49444 237.29807,492.73367 237.29808,499.72888 C 237.29808,499.72888 246.94724,502.91262 265.16985,513.61665 C 265.16985,513.61665 257.61996,513.35868 258.10682,522.84373 C 258.10682,522.84373 249.32441,516.07942 247.13197,512.83538 C 244.93955,509.59134 241.65062,510.59256 235.43724,509.45436 C 233.1175,522.54117 225.43636,510.09412 217.3722,514.5865 C 209.30804,511.93765 204.92609,512.66272 202.51269,513.37419 C 196.40563,515.17455 186.29249,510.28067 185.56143,521.01178 C 185.56143,521.01178 179.49133,523.69218 179.97893,515.20613 C 180.43538,507.25116 193.95876,505.9696 198.05756,505.26513 C 192.71621,505.03097 185.73437,505.51245 180.4815,508.74044 C 180.4815,508.74044 175.33604,505.02339 179.6122,500.49668 C 185.00784,494.78559 201.07907,497.69306 209.14107,499.60765 C 209.03375,499.44014 208.94468,499.25253 208.88299,499.0419 C 208.88299,499.0419 207.5274,497.17497 200.63827,493.33055 C 193.74916,489.48534 195.24246,492.5672 189.10654,492.46845 C 189.10654,492.46845 182.58068,488.87559 191.61934,480.93797 C 191.61934,480.93797 196.78629,481.72027 201.98296,484.19776 C 205.96598,486.09663 207.19724,488.98792 211.66745,493.27666 C 219.4649,498.76653 221.18716,498.2051 226.45905,495.66088 C 234.49844,485.42773 272.69605,453.63279 262.61629,445.3542 C 224.95804,414.42513 229.30034,378.26402 237.92288,364.85633 C 219.17774,355.48676 224.33522,355.86183 212.659,343.60037 C 205.58661,340.95938 206.17832,323.49528 204.944,321.45537 C 193.56691,316.40424 193.62217,305.06617 196.00657,297.02044 C 189.35467,297.08241 182.31872,284.2597 183.49686,273.82478 C 184.3314,254.18131 200.16286,250.45399 200.16287,250.45399 C 200.16287,250.45399 189.40152,232.64304 195.43609,220.28076 C 202.66252,205.47744 222.3779,206.47093 227.39627,199.21339 C 232.12059,192.38062 236.57162,176.42982 258.52789,177.28391 C 280.48416,178.13801 295.49531,162.87716 289.65952,134.4083 C 287.34872,136.13098 284.77146,138.70953 283.18055,140.72581 C 278.59247,146.53977 272.75596,146.4271 270.38562,141.11645 C 268.27508,143.20518 264.53324,148.21524 259.89974,148.21524 C 254.24634,148.21524 243.30841,149.05177 239.53923,153.10492 C 235.77078,157.15883 236.14971,159.48516 233.88881,161.41603 C 233.88881,161.41603 235.01406,156.19795 231.81065,156.39164 C 228.60725,156.58458 228.23173,161.41133 225.97008,162.18383 C 225.97008,162.18383 225.59306,157.94072 222.95471,157.94072 C 220.31635,157.94072 218.05828,163.7329 215.79661,163.7329 C 215.79661,163.7329 216.35335,158.1293 214.84582,158.1293 C 204.85744,158.1293 201.3206,147.79263 204.7131,142.77328 C 206.85788,139.59863 206.96581,146.43718 216.01393,146.43718 C 231.08992,146.43718 255.15099,142.01723 260.7962,133.73479 C 263.73086,129.42998 262.6027,126.07025 262.60271,126.07025 C 262.60271,126.07025 255.16277,119.57145 249.37312,116.81623 C 245.20045,114.83045 235.16399,117.67577 227.89883,119.25433 C 221.04089,120.74443 206.37355,114.23611 211.27356,96.476232 C 211.27356,96.476232 206.84377,93.340092 206.70975,87.841842 C 206.62042,84.190582 213.01035,82.613812 216.92397,84.703292 C 219.01813,85.821242 229.1959,83.942862 234.06538,87.074042 C 236.68439,88.758592 239.55281,92.637232 239.55281,92.637232 C 239.55281,92.637232 247.66367,87.033022 249.35954,82.979112 C 250.54265,80.150962 255.33121,77.743192 260.84849,79.595292 C 263.23978,80.398022 265.76795,82.000982 268.1988,84.716762 C 268.1988,84.716762 274.59346,85.784602 280.26026,84.905342 C 282.26881,84.593442 284.77963,84.665822 287.44553,85.390272 C 287.44553,85.390272 292.66038,77.710452 302.45446,76.446062 C 311.46459,71.298942 324.06163,70.925412 331.65735,65.602562 C 331.65735,65.602562 330.32729,86.440752 314.44801,90.778352 C 308.45144,92.416382 301.92693,93.459182 299.92806,96.530112 C 301.76911,98.752292 300.3281,96.095982 301.72098,99.547442 C 301.72098,99.547442 310.82765,97.019262 318.93031,94.509582 C 327.033,91.999922 335.25997,86.585072 348.13318,81.914962 C 348.13318,81.914962 346.82764,101.67573 336.07173,112.69435 C 331.61242,117.26223 327.59988,121.03444 318.90314,122.568 C 318.90314,122.568 317.89241,143.89169 333.38234,154.12866 C 333.38234,154.12866 318.81522,165.9696 331.80674,195.14538 C 331.80674,195.14538 307.25524,201.14024 308.25428,225.70925 C 308.25428,225.70925 273.96842,227.85145 274.85434,255.15509 C 279.55483,257.00742 286.59249,256.998 291.22153,256.7311 C 297.60302,253.26286 307.59775,249.44923 317.01516,248.47388 C 339.02428,246.19222 358.55117,257.43156 358.55117,257.43156 C 358.55112,257.43156 356.14974,227.01701 365.38326,211.96965 C 374.61822,196.92154 380.43063,193.21554 377.26818,187.19798 C 374.53671,182.00171 363.22154,185.43714 354.87023,185.75667 C 346.43924,186.08 336.00704,172.42404 345.66113,157.80602 C 355.31452,143.18799 430.52122,97.024082 503.28882,29.367742 C 503.28882,29.367742 513.68292,32.619892 506.61652,34.270892 C 502.08292,45.741012 465.70532,101.0502 465.70532,125.12733 C 465.70532,149.20523 487.52832,169.42112 490.46672,171.1415 C 493.40502,172.8619 490.88712,175.87144 486.69072,176.73164 C 482.49342,177.59183 459.41652,190.91819 459.41652,218.43535 C 459.41652,245.95251 472.84482,257.55658 475.36272,259.27697 C 477.87972,260.99661 477.03922,266.58864 470.32352,265.72919 C 463.60772,264.86977 433.33462,271.68701 427.51072,319.47526 C 427.09082,322.91527 426.07392,330.89651 419.53762,324.20329 C 417.99952,322.62855 399.99882,318.2751 385.86602,327.92106 C 385.86602,327.92106 392.56982,338.18844 404.77322,337.60613 C 404.61722,364.17505 410.21232,359.92466 424.29292,367.57454 C 413.37332,387.10973 434.54652,397.60236 434.54652,397.60236 C 426.57392,400.22859 424.16932,416.79739 424.16932,416.79739 C 424.16932,416.79739 423.63122,422.58705 440.27842,435.26502 C 423.28582,446.83418 427.71442,453.18037 427.71442,453.18037 C 427.71442,453.18037 427.32792,459.14684 430.60752,472.17334 C 417.45282,472.60341 415.41712,478.35461 413.77852,476.95526 C 413.77852,476.95526 410.35582,485.51719 411.04842,497.38954 C 386.88702,489.24992 389.45402,494.64955 381.73688,507.3979 C 365.20015,500.87954 362.51902,501.22457 351.46098,513.52683 C 335.51567,500.53658 333.96946,499.98454 317.7758,506.3068 C 310.00218,487.37622 307.17896,490.71107 294.88887,486.07459 C 296.16292,472.30196 299.0403,475.87921 291.07213,461.42413 C 293.38561,455.36303 299.09351,444.6297 293.04161,433.44654 C 302.95584,429.34318 309.28382,434.05979 307.76577,412.1979 L 329.6308,435.71454 z M 218.2415,505.07655 C 218.35495,505.08573 218.35436,505.14962 218.20075,505.29207 C 218.04207,505.43924 217.27094,505.53036 216.13618,505.57495 C 217.22149,505.28773 218.00466,505.05737 218.2415,505.07655 z"
         style="fill:#fcef3c;fill-opacity:1;stroke:#000000;stroke-width:3.91363502;stroke-linecap:round;stroke-linejoin:round;stroke-miterlimit:4;stroke-dasharray:none" />
      <path
         id="path7267"
         d="M 274.85239,255.1606 C 284.84598,222.91388 312.3291,231.10329 312.3291,231.10329 C 311.33003,206.53429 336.314,199.36827 336.314,199.36827 C 323.32172,170.19248 339.81147,153.81289 339.81147,153.81289 C 324.32155,143.5767 318.89592,122.5705 318.89592,122.5705 C 316.20102,123.04558 313.05718,123.30487 309.31256,123.30487 C 309.31256,123.30487 322.35246,135.18977 321.1308,156.15784 C 319.9084,177.12667 311.52509,203.11867 269.19153,223.44464 C 259.41459,228.13912 250.5548,225.63479 246.88836,221.56715 C 246.88836,221.56715 256.36008,231.26877 253.30483,237.8415 C 250.24883,244.41423 238.42313,248.9623 238.42313,255.53351 C 245.36966,252.31082 258.38724,248.67176 274.85239,255.1606 z"
         i:knockout="Off"
         style="fill:#fcef3c;stroke:#000000;stroke-width:3.91363502;stroke-linecap:round;stroke-linejoin:round;stroke-miterlimit:4;stroke-dasharray:none" />
      <path
         id="path7269"
         d="M 205.07817,122.80156 C 201.52041,123.18513 197.6671,123.76547 194.2761,123.88214"
         i:knockout="Off"
         style="fill:#5ab532;stroke:#000000;stroke-width:3.91363502;stroke-linecap:round;stroke-linejoin:round;stroke-miterlimit:4;stroke-dasharray:none" />
      <path
         id="path7271"
         d="M 238.55737,364.22038 C 241.37337,355.9218 265.66113,338.34037 300.26009,345.03389"
         i:knockout="Off"
         style="fill:none;stroke:#000000;stroke-width:3.91363502;stroke-linecap:round;stroke-linejoin:round;stroke-miterlimit:4;stroke-dasharray:none"
         sodipodi:nodetypes="cc" />
      <path
         id="path7275"
         d="M 232.87842,258.744 C 232.87842,258.744 234.84602,257.19442 238.42313,255.53427"
         i:knockout="Off"
         style="fill:none;stroke:#000000;stroke-width:3.91363502;stroke-linecap:round;stroke-linejoin:round;stroke-miterlimit:4;stroke-dasharray:none" />
      <path
         id="path7277"
         d="M 264.47839,287.89767 C 264.47839,287.89767 270.53677,267.97892 291.21629,256.73687"
         i:knockout="Off"
         style="fill:none;stroke:#000000;stroke-width:3.91363502;stroke-linecap:round;stroke-linejoin:round;stroke-miterlimit:4;stroke-dasharray:none" />
      <path
         id="path7279"
         d="M 307.79759,339.56212 C 307.79759,339.56212 339.00151,313.99489 364.34207,345.71772 C 366.80099,348.79551 371.16799,349.54361 372.94573,344.83312 C 376.08289,336.79852 380.71637,331.42837 385.86282,327.91667"
         i:knockout="Off"
         style="fill:none;stroke:#000000;stroke-width:3.91363502;stroke-linecap:round;stroke-linejoin:round;stroke-miterlimit:4;stroke-dasharray:none" />
      <path
         sodipodi:nodetypes="ccc"
         id="path7281"
         d="M 327.76452,368.92034 C 327.76452,368.92034 331.18819,379.60356 327.63712,385.81116 C 322.91129,396.28984 320.34196,396.01489 320.34196,396.01489"
         i:knockout="Off"
         style="fill:none;stroke:#000000;stroke-width:3.91363502;stroke-linecap:round;stroke-linejoin:round;stroke-miterlimit:4;stroke-dasharray:none" />
      <path
         id="path7283"
         d="M 270.37969,141.12117 C 271.67951,139.47474 272.26466,137.57743 272.71729,135.85704 C 274.43995,129.30108 267.80015,120.74791 267.80015,120.74791"
         i:knockout="Off"
         style="fill:#5ab532;stroke:#000000;stroke-width:3.91363502;stroke-linecap:round;stroke-linejoin:round;stroke-miterlimit:4;stroke-dasharray:none" />
      <path
         id="path7285"
         d="M 268.19991,84.715712 C 270.27324,87.032452 271.40406,89.348422 271.40406,89.348422"
         i:knockout="Off"
         style="fill:#5ab532;stroke:#000000;stroke-width:3.91363502;stroke-linecap:round;stroke-linejoin:round;stroke-miterlimit:4;stroke-dasharray:none" />
      <path
         id="path7287"
         d="M 298.36531,92.651182 C 294.97803,88.564492 291.0592,86.373572 287.43966,85.389842"
         i:knockout="Off"
         style="fill:#5ab532;stroke:#000000;stroke-width:3.91363502;stroke-linecap:round;stroke-linejoin:round;stroke-miterlimit:4;stroke-dasharray:none" />
      <path
         sodipodi:nodetypes="ccccsc"
         id="path7289"
         d="M 245.20886,100.68732 C 248.40035,101.11971 251.47123,91.977062 258.94707,94.467662 C 266.2889,96.913282 266.39015,94.627352 276.99941,96.155162 C 276.99941,96.155162 264.61313,106.72853 258.94707,107.66422 C 254.80343,108.34902 249.81034,106.72853 248.73908,101.97838 C 248.43608,100.63623 246.67097,100.84288 245.20886,100.68732 z"
         i:knockout="Off"
         style="fill:#fcef3c;stroke:#000000;stroke-width:3.91363502;stroke-linecap:round;stroke-linejoin:round;stroke-miterlimit:4;stroke-dasharray:none" />
      <path
         sodipodi:nodetypes="ccccc"
         id="path7291"
         d="M 337.62802,95.851342 C 331.10509,97.217892 315.3649,105.5625 305.74133,106.1779 C 305.74133,106.1779 309.29396,113.61087 309.29396,114.53589 C 309.29396,114.53589 319.21905,117.30788 325.23352,110.8381 C 330.36949,105.31469 333.1166,98.316022 337.62802,95.851342 z"
         i:knockout="Off"
         style="fill:none;stroke:#000000;stroke-width:3.91363502;stroke-linecap:round;stroke-linejoin:round;stroke-miterlimit:4;stroke-dasharray:none" />
      <path
         style="fill:#000000"
         id="path7293"
         d="M 253.46862,94.742962 C 253.44255,94.742962 253.41799,94.747532 253.39268,94.748292 C 252.04149,95.391162 250.89055,96.384802 249.86619,97.379992 C 249.35847,98.391172 249.05845,99.622742 249.05845,100.95499 C 249.05845,102.2674 249.34953,103.4822 249.84162,104.485 C 250.72454,105.74173 251.9782,106.62481 253.39714,107.16091 C 253.42097,107.16168 253.44404,107.16625 253.46786,107.16625 C 255.90299,107.16625 257.87729,104.38509 257.87729,100.95423 C 257.87729,97.523342 255.90374,94.742962 253.46862,94.742962 z M 254.7714,99.557162 C 254.23093,99.752392 253.58996,99.306272 253.3413,98.560472 C 253.09266,97.814652 253.32865,97.052832 253.86986,96.856852 C 254.41109,96.662392 255.05133,97.107742 255.30072,97.853542 C 255.55011,98.599362 255.31263,99.361182 254.7714,99.557162 z"
         i:knockout="Off" />
      <path
         id="path7295"
         d="M 240.11976,106.24886 C 232.62977,95.722122 219.741,96.435902 219.741,96.435902"
         i:knockout="Off"
         style="fill:#5ab532;stroke:#000000;stroke-width:3.91363502;stroke-linecap:round;stroke-linejoin:round;stroke-miterlimit:4;stroke-dasharray:none" />
      <path
         id="path7297"
         d="M 504.74132,27.043512 C 504.74132,27.043512 514.02192,15.429012 525.82172,26.610032 C 525.82172,26.610032 511.34422,26.342382 507.41292,33.205042 C 506.82612,34.229452 502.71512,29.153752 504.74132,27.043512 z"
         i:knockout="Off"
         style="fill:#fcef3c;stroke:#000000;stroke-width:3.91363788;stroke-linecap:round;stroke-linejoin:round;stroke-miterlimit:4;stroke-dasharray:none" />
      <path
         id="path7299"
         d="M 488.05962,168.50183 C 488.05962,168.50183 497.39142,167.69959 502.17602,172.99499 C 505.21642,176.35875 506.16032,180.98002 504.34162,185.19561 C 504.34162,185.19561 498.95622,172.96753 487.87872,176.37248 C 485.96472,176.96043 485.18822,168.89379 488.05962,168.50183 z"
         i:knockout="Off"
         style="fill:#fcef3c;stroke:#000000;stroke-width:3.91363502;stroke-linecap:round;stroke-linejoin:round;stroke-miterlimit:4;stroke-dasharray:none" />
      <path
         id="path7301"
         d="M 470.32292,265.72089 C 486.69952,265.20234 484.82722,281.1076 484.82722,281.1076 C 484.82722,281.1076 493.62072,272.8671 487.82142,264.62735 C 482.65782,257.28975 473.22932,257.53758 473.22932,257.53758 C 473.22932,257.53758 475.27362,262.5981 470.32292,265.72089 z"
         i:knockout="Off"
         style="fill:#fcef3c;stroke:#000000;stroke-width:3.91363502;stroke-linecap:round;stroke-linejoin:round;stroke-miterlimit:4;stroke-dasharray:none" />
      <path
         id="path7303"
         d="M 419.53612,324.19448 C 425.97412,328.47717 431.77202,334.00439 425.77462,344.44649 C 425.77462,344.44649 436.76732,340.35292 435.36842,328.88744 C 434.60982,322.67236 427.51072,319.46569 427.51072,319.46569 C 427.51072,319.46569 426.48782,324.0069 419.53612,324.19448 z"
         i:knockout="Off"
         style="fill:#fcef3c;stroke:#000000;stroke-width:3.91363502;stroke-linecap:round;stroke-linejoin:round;stroke-miterlimit:4;stroke-dasharray:none" />
      <path
         id="path7305"
         d="M 364.34207,345.71772 C 364.34207,345.71772 366.83598,355.92493 350.94631,364.45066 C 350.94631,364.45066 364.96144,363.58207 369.86222,358.40487 C 374.70488,353.28868 372.73806,345.69256 372.73806,345.69256 C 372.73806,345.69256 368.65842,348.84356 364.34207,345.71772 z"
         i:knockout="Off"
         style="fill:#fcef3c;stroke:#000000;stroke-width:3.91363502;stroke-linecap:round;stroke-linejoin:round;stroke-miterlimit:4;stroke-dasharray:none" />
      <path
         id="path7307"
         d="M 297.20248,268.03915 C 297.20248,268.03915 307.17297,254.55816 327.11251,256.19239 C 347.05205,257.8266 349.84448,267.63041 353.4328,292.14147 C 357.02107,316.65251 364.34132,345.71772 364.34132,345.71772"
         i:knockout="Off"
         style="fill:none;stroke:#000000;stroke-width:3.91363502;stroke-linecap:round;stroke-linejoin:round;stroke-miterlimit:4;stroke-dasharray:none" />
      <path
         id="path7309"
         d="M 372.73806,345.69332 C 372.73806,345.69332 363.22984,297.04566 362.32234,284.95408 C 361.41484,272.86251 360.80885,266.66955 363.53283,266.66193 C 367.05783,266.65201 372.00921,272.24253 390.47102,291.46428 C 408.93282,310.68603 419.53612,324.19448 419.53612,324.19448"
         i:knockout="Off"
         style="fill:none;stroke:#000000;stroke-width:3.91363502;stroke-linecap:round;stroke-linejoin:round;stroke-miterlimit:4;stroke-dasharray:none" />
      <path
         id="path7311"
         d="M 427.51072,319.46493 C 427.51072,319.46493 382.23807,265.38841 373.52121,253.64077 C 364.8051,241.89237 369.12223,221.77305 387.24382,228.58676 C 405.36532,235.40047 447.19932,254.68551 470.32442,265.72014"
         i:knockout="Off"
         style="fill:none;stroke:#000000;stroke-width:3.91363502;stroke-linecap:round;stroke-linejoin:round;stroke-miterlimit:4;stroke-dasharray:none" />
      <path
         id="path7313"
         d="M 473.23082,257.53682 C 473.23082,257.53682 415.93812,230.13634 396.71622,219.39607 C 377.49437,208.65581 385.64912,197.31843 397.59102,195.52865 C 409.53202,193.73885 487.87872,176.37172 487.87872,176.37172"
         i:knockout="Off"
         style="fill:none;stroke:#000000;stroke-width:3.91363502;stroke-linecap:round;stroke-linejoin:round;stroke-miterlimit:4;stroke-dasharray:none" />
      <path
         id="path7315"
         d="M 487.48342,168.43548 C 487.48342,168.43548 421.83052,176.90857 388.34112,182.54714 C 388.34112,182.54714 389.53742,171.95939 373.71028,171.95939 C 357.88315,171.95939 352.83573,162.56128 362.46974,149.87336 C 375.2365,140.29149 431.84752,103.40158 497.50362,44.372432"
         i:knockout="Off"
         style="fill:none;stroke:#000000;stroke-width:3.91363502;stroke-linecap:round;stroke-linejoin:round;stroke-miterlimit:4;stroke-dasharray:none"
         sodipodi:nodetypes="ccscc" />
      <path
         id="path7317"
         d="M 210.15611,217.07094 C 210.15611,217.07094 199.33022,222.61571 202.77482,233.70524"
         i:knockout="Off"
         style="fill:none;stroke:#000000;stroke-width:3.91363502;stroke-linecap:round;stroke-linejoin:round;stroke-miterlimit:4;stroke-dasharray:none" />
      <path
         id="path7319"
         d="M 198.34605,261.93313 C 198.34605,261.93313 189.98059,272.01452 200.31439,283.10405"
         i:knockout="Off"
         style="fill:none;stroke:#000000;stroke-width:3.91363502;stroke-linecap:round;stroke-linejoin:round;stroke-miterlimit:4;stroke-dasharray:none" />
      <path
         sodipodi:nodetypes="cc"
         id="path7321"
         d="M 201.011,298.52873 C 201.011,298.52873 198.01769,308.69102 211.42133,318.8759"
         i:knockout="Off"
         style="fill:none;stroke:#000000;stroke-width:3.91363716;stroke-linecap:round;stroke-linejoin:round;stroke-miterlimit:4;stroke-dasharray:none" />
      <path
         sodipodi:nodetypes="ccccccccccccc"
         id="path7323"
         d="M 313.88782,421.32598 C 309.51872,427.66848 299.03077,438.16814 298.23289,447.26777 C 296.66651,453.48137 297.84129,464.74351 298.62449,471.7338 C 299.40768,478.72409 304.10685,485.71439 313.89666,491.53963 C 321.72857,497.75323 326.42772,499.69498 336.21755,499.69498 C 344.83261,501.24837 356.97205,501.63673 364.80393,499.30662 C 372.63579,496.97653 382.4257,493.48139 387.12482,491.15129 C 391.82392,488.82118 404.35492,481.44254 409.44562,472.89886 C 414.92802,465.90855 419.23552,459.69496 420.41032,447.65612 C 420.41032,441.44252 420.34312,425.94757 419.55992,416.62719 C 418.77672,407.30679 416.88592,394.06387 415.31962,387.07358 C 413.84822,378.89063 409.05412,366.1027 403.18012,357.559 C 396.68532,350.15276 388.69122,340.47162 380.85928,334.25803"
         style="fill:none;fill-rule:evenodd;stroke:#000000;stroke-width:4.26942205;stroke-linecap:butt;stroke-linejoin:miter;stroke-opacity:1" />
      <path
         sodipodi:nodetypes="cssscscccscsscc"
         id="path2161"
         d="M 503.70982,264.18495 C 504.72722,266.31021 507.53402,278.6085 507.30562,281.74607 C 506.48992,292.95172 504.49252,303.58258 504.08982,314.65709 C 503.55612,329.33563 509.28262,337.12175 509.28262,337.12174 C 493.20172,338.69922 489.07342,308.57362 488.76692,317.92144 C 485.42572,323.5946 477.52292,336.71834 470.54782,344.02524 C 454.77892,360.54433 443.39752,365.29792 421.16542,378.52407 C 421.14982,375.2706 422.04872,371.60145 424.30672,367.56183 C 420.97722,365.75292 415.20932,363.39092 412.79262,362.34798 C 429.54462,356.53236 456.21672,345.61349 463.86692,337.78386 C 472.86842,328.57121 483.19042,314.33934 483.19042,314.33934 C 483.19042,314.33934 477.20682,316.67744 471.61882,315.29258 C 465.84322,313.86096 457.41882,320.85313 457.41882,320.85314 C 463.95852,307.22723 476.83632,299.50911 488.76792,290.28595 C 497.84512,282.17742 503.70982,264.18495 503.70982,264.18495 z"
         style="fill:#fcef3c;fill-opacity:1;stroke:#000000;stroke-width:3.9136374;stroke-linecap:round;stroke-linejoin:round;stroke-miterlimit:4;stroke-dasharray:none;display:inline" />
      <path
         style="fill:#fcef3c;fill-opacity:1;stroke:none;stroke-width:5.48496342;stroke-linecap:round;stroke-linejoin:round;stroke-miterlimit:4;stroke-dasharray:none"
         d="M 497.48562,44.355882 L 496.80912,52.556172 C 484.55922,74.247382 465.68832,107.74725 465.68832,125.12866 C 465.68832,144.84992 480.31222,161.97956 487.22482,168.47834 C 486.43152,168.58049 421.62242,176.9265 388.33752,182.53065 C 388.33752,182.53066 389.54392,171.94482 373.71675,171.94482 C 357.88962,171.94484 352.84469,162.56652 362.4787,149.87861 C 375.24545,140.29676 431.82952,103.38501 497.48562,44.355882 z M 487.86372,176.38043 C 487.48292,176.50531 487.11642,176.63025 486.69862,176.71589 C 482.50132,177.57609 459.41152,190.90836 459.41152,218.42551 C 459.41152,241.27984 468.66122,253.13401 473.24302,257.48868 L 473.24302,257.52596 C 473.24302,257.52596 415.94092,230.13489 396.71902,219.39463 C 377.49714,208.65438 385.64162,197.32906 397.58352,195.53927 C 409.52452,193.74948 487.86372,176.38043 487.86372,176.38043 z M 381.0835,227.22218 C 382.9188,227.30119 384.98232,227.74961 387.24752,228.60132 C 405.36912,235.41501 447.18632,254.69161 470.31132,265.72624 C 463.59562,264.86681 433.32542,271.68713 427.50152,319.47536 C 427.50152,319.47536 382.24567,265.39709 373.52883,253.64945 C 365.9022,243.3696 368.23633,226.66911 381.0835,227.22218 z M 323.54018,256.03499 C 324.1067,256.03142 324.68433,256.05055 325.26912,256.07226 C 325.87274,256.09468 326.48769,256.13302 327.11081,256.18409 C 347.05031,257.81831 349.83229,267.64247 353.42061,292.15351 C 357.00888,316.66455 364.35798,345.71626 364.35798,345.71626 C 364.35798,345.71626 300.84258,343.20952 267.94569,341.48861 C 249.6724,322.99228 277.49207,284.42682 277.49207,284.42682 C 284.82207,279.58064 305.97821,256.14567 323.54018,256.03499 z M 363.5311,266.65808 C 367.05609,266.64816 372.01808,272.26083 390.47982,291.48257 C 408.94172,310.70433 419.53342,324.20916 419.53342,324.20916 C 417.99532,322.63442 399.98962,318.29063 385.85682,327.93656 C 385.85682,327.93656 388.99212,332.68732 394.83982,335.54045 L 372.73953,345.67899 C 372.73953,345.67899 363.23586,297.05119 362.32836,284.95962 C 361.42086,272.86805 360.80712,266.66571 363.5311,266.65808 z"
         id="path3151"
         sodipodi:nodetypes="ccscsscccssccssccscssccssscccccsccccsc" />
      <g
         style="fill:#fcef3c;fill-opacity:1"
         transform="matrix(0.4242261,7.6372047e-2,-7.7010258e-2,0.4277712,312.24856,117.09262)"
         id="g2519">
        <path
           style="opacity:1;fill:#fcef3c;fill-opacity:1;stroke:#000000;stroke-width:9.0416975;stroke-linecap:round;stroke-linejoin:round;stroke-miterlimit:4;stroke-dasharray:none;display:inline"
           i:knockout="Off"
           d="M -240.63038,653.60404 L -228.51929,669.89264 C -228.51929,669.89264 -217.74761,671.56978 -220.03589,690.94909 C -220.03589,690.94909 -201.72967,687.63899 -201.72967,664.47549 C -201.72967,651.71105 -212.26157,648.46643 -212.26157,648.46643 L -227.35804,644.62029 L -240.63038,653.60404 z"
           id="path2521" />
        <path
           style="opacity:1;fill:#fcef3c;fill-opacity:1;stroke:#000000;stroke-width:9.04169846;stroke-linecap:round;stroke-linejoin:round;stroke-miterlimit:4;stroke-dasharray:none;display:inline"
           i:knockout="Off"
           d="M -402.58271,656.9649 L -410.17577,663.51841 C -410.17577,663.51841 -428.19546,663.77006 -435.16188,685.17399 C -435.16188,685.17399 -440.84872,670.74468 -438.44555,660.82641 C -436.87732,654.34989 -430.55875,648.81238 -430.55875,648.81238 L -415.91237,646.19615 L -406.29145,649.3244 L -402.58271,656.9649 z"
           id="path2523" />
        <path
           style="opacity:1;fill:#fcef3c;fill-opacity:1;stroke:#000000;stroke-width:9.04169178;stroke-linecap:round;stroke-linejoin:round;stroke-miterlimit:4;stroke-dasharray:none;display:inline"
           i:knockout="Off"
           d="M -392.06257,568.02149 L -401.40082,566.28004 C -401.40082,566.28004 -425.00956,563.56477 -438.202,584.47789 C -438.202,584.47789 -412.13901,581.67769 -402.52882,589.60074 C -392.9202,597.52298 -389.58136,590.75529 -389.58136,590.75529 L -388.11618,575.5387 L -392.06257,568.02149 z"
           id="path2525" />
        <path
           style="opacity:1;fill:#fcef3c;fill-opacity:1;stroke:#000000;stroke-width:9.0416975;stroke-linecap:round;stroke-linejoin:round;stroke-miterlimit:4;stroke-dasharray:none;display:inline"
           i:knockout="Off"
           d="M -451.70524,643.49228 C -451.70524,643.49228 -449.032,624.33551 -437.13011,615.97234 C -427.28445,609.0538 -414.48648,609.66429 -414.48648,609.66429 L -404.68963,618.47859 L -407.82843,629.58579 L -411.31639,634.24099 L -416.5327,632.8015 C -416.53396,632.8015 -429.2193,626.29553 -451.70524,643.49228 z"
           id="path2527" />
        <path
           sodipodi:nodetypes="cccsccccccccscccsccscccc"
           style="opacity:1;fill:#fcef3c;fill-opacity:1;stroke:#000000;stroke-width:9.0416975;stroke-linecap:round;stroke-linejoin:round;stroke-miterlimit:4;stroke-dasharray:none;display:inline"
           i:knockout="Off"
           d="M -144.77212,405.74478 C -122.65041,428.49065 -289.71078,579.21859 -308.20712,602.95886 C -320.33622,608.86127 -324.30357,610.16643 -342.24327,597.43029 C -352.52799,587.48068 -355.35892,580.77356 -364.5227,576.36829 C -376.47877,570.62069 -388.37049,568.79145 -388.37049,568.79145 C -409.16586,587.20623 -394.15809,595.54321 -394.15809,595.54321 C -380.04107,595.7723 -383.48006,588.61371 -367.63016,597.53434 C -351.78022,606.45319 -348.65035,610.80342 -348.65035,610.80342 C -346.9684,616.59385 -337.15843,614.98178 -337.15843,614.98178 C -337.15843,614.98178 -399.17719,596.23195 -415.99502,614.18176 C -425.83325,624.68345 -414.00684,633.28696 -414.00684,633.28696 C -391.58308,619.39204 -355.29292,627.36343 -355.29292,627.36343 C -342.96088,631.41833 -324.40067,622.65379 -327.22799,625.29782 C -329.20977,627.15113 -371.97281,624.91582 -371.97281,624.91582 C -378.70037,626.53431 -414.04145,628.61558 -415.16161,648.30095 C -416.28347,667.98807 -402.3074,661.74652 -402.3074,661.74652 C -400.62545,636.85101 -377.35536,648.21808 -363.30475,644.04134 C -357.75221,642.39076 -347.67359,640.70043 -329.12025,646.8456 C -310.56691,636.42352 -292.88677,665.2969 -287.5497,634.93631 C -273.2545,637.57683 -265.68774,635.26278 -260.6436,642.78875 C -255.59945,650.31473 -235.41601,666.01961 -235.41601,666.01961 C -236.53617,644.01488 -219.16,644.59518 -219.16,644.59518 C -261.08502,619.76248 -283.27877,612.38146 -283.27877,612.38146 C -283.27877,596.15302 -80.31435,463.58258 -79.35562,432.70173"
           id="path2529" />
      </g>
      <g
         style="fill:#fcef3c"
         transform="matrix(0.9743576,-0.2250047,0.2250047,0.9743576,812.37038,-89.125168)"
         id="g2541">
        <path
           style="fill:#fcef3c;stroke:#000000;stroke-width:3.91363502;stroke-linecap:round;stroke-linejoin:round;stroke-miterlimit:4;stroke-dasharray:none"
           i:knockout="Off"
           d="M -527.54678,511.82353 L -522.28273,518.84467 C -522.28273,518.84467 -517.60085,519.56759 -518.59544,527.92097 C -518.59544,527.92097 -510.63869,526.49416 -510.63869,516.50962 C -510.63869,511.00756 -515.21635,509.60898 -515.21635,509.60898 L -521.77799,507.95112 L -527.54678,511.82353 z"
           id="path2543" />
        <path
           style="fill:#fcef3c;stroke:#000000;stroke-width:3.91363716;stroke-linecap:round;stroke-linejoin:round;stroke-miterlimit:4;stroke-dasharray:none"
           i:knockout="Off"
           d="M -597.93896,513.27221 L -601.23926,516.09708 C -601.23926,516.09708 -609.07147,516.20555 -612.09941,525.43163 C -612.09941,525.43163 -614.57118,519.21194 -613.52665,514.9367 C -612.84503,512.14502 -610.09867,509.7581 -610.09867,509.7581 L -603.73266,508.63039 L -599.55095,509.97881 L -597.93896,513.27221 z"
           id="path2545" />
        <path
           style="fill:#fcef3c;stroke:#000000;stroke-width:3.91363358;stroke-linecap:round;stroke-linejoin:round;stroke-miterlimit:4;stroke-dasharray:none"
           i:knockout="Off"
           d="M -593.3664,474.93351 L -597.42526,474.18285 C -597.42526,474.18285 -607.68673,473.01245 -613.4208,482.02697 C -613.4208,482.02697 -602.09257,480.81995 -597.91554,484.23515 C -593.73917,487.65 -592.28795,484.73282 -592.28795,484.73282 L -591.65111,478.17376 L -593.3664,474.93351 z"
           id="path2547" />
        <path
           style="fill:#fcef3c;stroke:#000000;stroke-width:3.91363502;stroke-linecap:round;stroke-linejoin:round;stroke-miterlimit:4;stroke-dasharray:none"
           i:knockout="Off"
           d="M -619.28994,507.4649 C -619.28994,507.4649 -618.12803,499.20744 -612.95489,495.60253 C -608.67551,492.62033 -603.11291,492.88347 -603.11291,492.88347 L -598.85472,496.68284 L -600.21899,501.47056 L -601.73502,503.47716 L -604.00228,502.85667 C -604.00284,502.85667 -609.51648,500.0523 -619.28994,507.4649 z"
           id="path2549" />
      </g>
    </g>
  </g>
  <g
     inkscape:groupmode="layer"
     id="layer2"
     inkscape:label="Reflet final"
     sodipodi:insensitive="true">
    <path
       sodipodi:nodetypes="cccccc"
       d="M 300.00001,658.5 C 300.00001,658.5 598.50001,546.17969 598.50001,260.72817 C 598.50001,-24.723334 598.50001,2.1764865 598.50001,2.1764865 L 1.5,2.1764865 L 1.5,260.72817 C 1.5,546.17969 300.00001,658.5 300.00001,658.5 z"
       style="opacity:1;fill:url(#radialGradient3163);fill-opacity:1;fill-rule:evenodd;stroke:none;stroke-width:1px;stroke-linecap:butt;stroke-linejoin:miter;stroke-opacity:1"
       id="path2875"
       inkscape:export-xdpi="144"
       inkscape:export-ydpi="144" />
  </g>
</svg>
