<?xml version="1.0" encoding="UTF-8" standalone="no"?>
<svg
   xmlns:dc="http://purl.org/dc/elements/1.1/"
   xmlns:cc="http://creativecommons.org/ns#"
   xmlns:rdf="http://www.w3.org/1999/02/22-rdf-syntax-ns#"
   xmlns:svg="http://www.w3.org/2000/svg"
   xmlns="http://www.w3.org/2000/svg"
   id="svg124"
   version="1.2"
   viewBox="0 0 807.202881 247.531616"
   height="247.531616pt"
   width="807.202881pt">
  <metadata
     id="metadata128">
    <rdf:RDF>
      <cc:Work
         rdf:about="">
        <dc:format>image/svg+xml</dc:format>
        <dc:type
           rdf:resource="http://purl.org/dc/dcmitype/StillImage" />
        <dc:title></dc:title>
      </cc:Work>
    </rdf:RDF>
  </metadata>
  <defs
     id="defs19">
    <clipPath
       id="clip1">
      <path
         id="path10"
         d="M 1 3 L 807.203125 3 L 807.203125 132 L 1 132 Z M 1 3 " />
    </clipPath>
    <clipPath
       id="clip2">
      <path
         id="path13"
         d="M 1 116 L 807.203125 116 L 807.203125 245 L 1 245 Z M 1 116 " />
    </clipPath>
    <clipPath
       id="clip3">
      <path
         id="path16"
         d="M 0 222 L 16 222 L 16 247.53125 L 0 247.53125 Z M 0 222 " />
    </clipPath>
  </defs>
  <g
     id="g232">
    <path
       id="path21"
       d="M 596.38672,123.76563 H 16 V 10.613281 h 776.37109 l -97.99218,56.578125 z m 0,0"
       style="fill:#de0533;fill-opacity:1;fill-rule:nonzero;stroke:none" />
    <g
       style="clip-rule:nonzero"
       id="g25"
       clip-path="url(#clip1)">
      <path
         id="path23"
         transform="scale(1,-0.492217)"
         d="M 596.38672,-251.44525 H 16 V -21.5622 h 776.37109 l -97.99218,-114.94549 z m 0,0"
         style="fill:none;stroke:#e6de00;stroke-width:29.66553116;stroke-linecap:round;stroke-linejoin:round;stroke-miterlimit:4;stroke-opacity:1" />
    </g>
    <path
       id="path27"
       d="M 596.38672,123.76563 H 16 v 113.15234 h 776.37109 l -97.99218,-56.57422 z m 0,0"
       style="fill:#1c2163;fill-opacity:1;fill-rule:nonzero;stroke:none" />
    <g
       style="clip-rule:nonzero"
       id="g31"
       clip-path="url(#clip2)">
      <path
         id="path29"
         transform="scale(1,0.492217)"
         d="M 596.38672,251.44525 H 16 V 481.32829 H 792.37109 L 694.37891,366.39074 Z m 0,0"
         style="fill:none;stroke:#e6de00;stroke-width:29.66553116;stroke-linecap:round;stroke-linejoin:round;stroke-miterlimit:4;stroke-opacity:1" />
    </g>
    <path
       id="path33"
       d="M 596.38672,123.76563 H 16 V 10.613281 h 776.37109 l -97.99218,56.578125 -97.9961,56.574224 z m 0,0"
       style="fill:#de0533;fill-opacity:1;fill-rule:nonzero;stroke:none" />
    <path
       id="path35"
       d="M 596.38281,123.76563 H 16 V 236.91797 H 792.36719 L 694.375,180.34375 Z m 0,0"
       style="fill:#1c2163;fill-opacity:1;fill-rule:nonzero;stroke:none" />
    <path
       id="path37"
       d="m 438.61328,82.152344 c -0.71484,0.71875 -1.72266,1.132812 -2.73828,1.132812 -1.01172,0 -2.01953,-0.414062 -2.73438,-1.132812 -0.71875,-0.714844 -1.13281,-1.722656 -1.13281,-2.734375 0,-1.015625 0.41406,-2.019531 1.13281,-2.738281 -0.71875,-0.714844 -1.13281,-1.722657 -1.13281,-2.734375 0,-1.015625 0.41406,-2.023438 1.13281,-2.738282 0.71485,-0.714843 1.72266,-1.132812 2.73438,-1.132812 1.01562,0 2.02344,0.417969 2.73828,1.132812 l 12.12109,-12.121093 5.47266,5.476562 -12.12109,12.117188 c 0.71875,0.71875 1.13281,1.722656 1.13281,2.738281 0,1.011719 -0.41406,2.019531 -1.13281,2.734375 -0.71485,0.71875 -1.72266,1.132812 -2.73438,1.132812 -1.01562,0 -2.02344,-0.414062 -2.73828,-1.132812 z m 40.66016,-5.472656 c 0.71484,0.71875 1.13281,1.722656 1.13281,2.738281 0,1.011719 -0.41797,2.019531 -1.13281,2.734375 -0.71875,0.71875 -1.72657,1.132812 -2.73828,1.132812 -1.01172,0 -2.01954,-0.414062 -2.73829,-1.132812 -0.71484,0.71875 -1.72265,1.132812 -2.73437,1.132812 -1.01172,0 -2.01953,-0.414062 -2.73828,-1.132812 -0.71485,-0.714844 -1.13281,-1.722656 -1.13281,-2.734375 0,-1.015625 0.41796,-2.019531 1.13281,-2.738281 L 456.20703,64.5625 l 5.47266,-5.476562 12.11718,12.121093 c 0.71875,-0.714843 1.72657,-1.132812 2.73829,-1.132812 1.01171,0 2.01953,0.417969 2.73828,1.132812 0.71484,0.714844 1.13281,1.722657 1.13281,2.738282 0,1.011718 -0.41797,2.019531 -1.13281,2.734375 z m -5.47657,-40.660157 c 0.71875,-0.714843 1.72657,-1.132812 2.73829,-1.132812 1.01171,0 2.01953,0.417969 2.73828,1.132812 0.71484,0.71875 1.13281,1.726563 1.13281,2.738282 0,1.011718 -0.41797,2.019531 -1.13281,2.738281 0.71484,0.714844 1.13281,1.722656 1.13281,2.734375 0,1.015625 -0.41797,2.019531 -1.13281,2.738281 -0.71875,0.714844 -1.72657,1.132813 -2.73828,1.132813 -1.01172,0 -2.01954,-0.417969 -2.73829,-1.132813 l -12.11718,12.117188 -5.47266,-5.472657 12.11719,-12.117187 c -0.71485,-0.71875 -1.13281,-1.726563 -1.13281,-2.738281 0,-1.011719 0.41796,-2.019532 1.13281,-2.738282 0.71875,-0.714843 1.72656,-1.132812 2.73828,-1.132812 1.01172,0 2.01953,0.417969 2.73437,1.132812 z m -40.65625,5.476563 c -0.71875,-0.71875 -1.13281,-1.726563 -1.13281,-2.738281 0,-1.011719 0.41406,-2.019532 1.13281,-2.738282 0.71485,-0.714843 1.72266,-1.132812 2.73438,-1.132812 1.01562,0 2.02344,0.417969 2.73828,1.132812 0.71484,-0.714843 1.72266,-1.132812 2.73828,-1.132812 1.01172,0 2.01953,0.417969 2.73438,1.132812 0.71875,0.71875 1.13281,1.726563 1.13281,2.738282 0,1.011718 -0.41406,2.019531 -1.13281,2.738281 l 12.12109,12.117187 -5.47266,5.472657 -12.12109,-12.117188 c -0.71484,0.714844 -1.72266,1.132813 -2.73828,1.132813 -1.01172,0 -2.01953,-0.417969 -2.73438,-1.132813 -0.71875,-0.71875 -1.13281,-1.722656 -1.13281,-2.738281 0,-1.011719 0.41406,-2.019531 1.13281,-2.734375 z m 17.59375,17.589844 5.47266,-5.472657 5.47266,5.472657 -5.47266,5.476562 z m 0,0"
       style="fill:#e6de00;fill-opacity:1;fill-rule:nonzero;stroke:none" />
    <path
       id="path39"
       d="m 537.20703,82.152344 c -0.71484,0.71875 -1.72266,1.132812 -2.73828,1.132812 -1.01172,0 -2.01953,-0.414062 -2.73438,-1.132812 -0.71875,-0.714844 -1.13281,-1.722656 -1.13281,-2.734375 0,-1.015625 0.41406,-2.019531 1.13281,-2.738281 -0.71875,-0.714844 -1.13281,-1.722657 -1.13281,-2.734375 0,-1.015625 0.41406,-2.023438 1.13281,-2.738282 0.71485,-0.714843 1.72266,-1.132812 2.73438,-1.132812 1.01562,0 2.02344,0.417969 2.73828,1.132812 l 12.12109,-12.121093 5.47266,5.476562 -12.12109,12.117188 c 0.71875,0.71875 1.13281,1.722656 1.13281,2.738281 0,1.011719 -0.41406,2.019531 -1.13281,2.734375 -0.71485,0.71875 -1.72266,1.132812 -2.73438,1.132812 -1.01562,0 -2.02344,-0.414062 -2.73828,-1.132812 z m 40.66016,-5.472656 c 0.71484,0.71875 1.13281,1.722656 1.13281,2.738281 0,1.011719 -0.41797,2.019531 -1.13281,2.734375 -0.71875,0.71875 -1.72657,1.132812 -2.73828,1.132812 -1.01172,0 -2.01954,-0.414062 -2.73829,-1.132812 -0.71484,0.71875 -1.72265,1.132812 -2.73437,1.132812 -1.01563,0 -2.01953,-0.414062 -2.73828,-1.132812 -0.71485,-0.714844 -1.13281,-1.722656 -1.13281,-2.734375 0,-1.015625 0.41796,-2.019531 1.13281,-2.738281 L 554.80078,64.5625 l 5.47266,-5.476562 12.11718,12.121093 c 0.71875,-0.714843 1.72657,-1.132812 2.73829,-1.132812 1.01171,0 2.01953,0.417969 2.73828,1.132812 0.71484,0.714844 1.13281,1.722657 1.13281,2.738282 0,1.011718 -0.41797,2.019531 -1.13281,2.734375 z m -5.47657,-40.660157 c 0.71875,-0.714843 1.72657,-1.132812 2.73829,-1.132812 1.01171,0 2.01953,0.417969 2.73828,1.132812 0.71484,0.71875 1.13281,1.726563 1.13281,2.738282 0,1.011718 -0.41797,2.019531 -1.13281,2.738281 0.71484,0.714844 1.13281,1.722656 1.13281,2.734375 0,1.015625 -0.41797,2.019531 -1.13281,2.738281 -0.71875,0.714844 -1.72657,1.132813 -2.73828,1.132813 -1.01172,0 -2.01954,-0.417969 -2.73829,-1.132813 l -12.11718,12.117188 -5.47266,-5.472657 12.11719,-12.117187 c -0.71485,-0.71875 -1.13281,-1.726563 -1.13281,-2.738281 0,-1.011719 0.41796,-2.019532 1.13281,-2.738282 0.71875,-0.714843 1.72656,-1.132812 2.73828,-1.132812 1.01172,0 2.01953,0.417969 2.73437,1.132812 z m -40.65625,5.476563 c -0.71875,-0.71875 -1.13281,-1.726563 -1.13281,-2.738281 0,-1.011719 0.41406,-2.019532 1.13281,-2.738282 0.71485,-0.714843 1.72266,-1.132812 2.73438,-1.132812 1.01562,0 2.02344,0.417969 2.73828,1.132812 0.71484,-0.714843 1.72266,-1.132812 2.73828,-1.132812 1.01172,0 2.01953,0.417969 2.73438,1.132812 0.71875,0.71875 1.13281,1.726563 1.13281,2.738282 0,1.011718 -0.41406,2.019531 -1.13281,2.738281 l 12.12109,12.117187 -5.47266,5.472657 -12.12109,-12.117188 c -0.71484,0.714844 -1.72266,1.132813 -2.73828,1.132813 -1.01172,0 -2.01953,-0.417969 -2.73438,-1.132813 -0.71875,-0.71875 -1.13281,-1.722656 -1.13281,-2.738281 0,-1.011719 0.41406,-2.019531 1.13281,-2.734375 z m 17.59375,17.589844 5.47266,-5.472657 5.47266,5.472657 -5.47266,5.476562 z m 0,0"
       style="fill:#e6de00;fill-opacity:1;fill-rule:nonzero;stroke:none" />
    <path
       id="path41"
       d="m 340.01953,82.152344 c -0.71484,0.71875 -1.72266,1.132812 -2.73828,1.132812 -1.01172,0 -2.01953,-0.414062 -2.73438,-1.132812 -0.71875,-0.714844 -1.13281,-1.722656 -1.13281,-2.734375 0,-1.015625 0.41406,-2.019531 1.13281,-2.738281 -0.71875,-0.714844 -1.13281,-1.722657 -1.13281,-2.734375 0,-1.015625 0.41406,-2.023438 1.13281,-2.738282 0.71485,-0.714843 1.72266,-1.132812 2.73438,-1.132812 1.01562,0 2.02344,0.417969 2.73828,1.132812 l 12.12109,-12.121093 5.47266,5.476562 -12.12109,12.117188 c 0.71875,0.71875 1.13281,1.722656 1.13281,2.738281 0,1.011719 -0.41406,2.019531 -1.13281,2.734375 -0.71485,0.71875 -1.72266,1.132812 -2.73438,1.132812 -1.01562,0 -2.02344,-0.414062 -2.73828,-1.132812 z m 40.66016,-5.472656 c 0.71484,0.71875 1.13281,1.722656 1.13281,2.738281 0,1.011719 -0.41797,2.019531 -1.13281,2.734375 -0.71875,0.71875 -1.72657,1.132812 -2.73828,1.132812 -1.01172,0 -2.01954,-0.414062 -2.73438,-1.132812 -0.71875,0.71875 -1.72656,1.132812 -2.73828,1.132812 -1.01172,0 -2.01953,-0.414062 -2.73828,-1.132812 -0.71485,-0.714844 -1.13281,-1.722656 -1.13281,-2.734375 0,-1.015625 0.41796,-2.019531 1.13281,-2.738281 L 357.61328,64.5625 l 5.47266,-5.476562 12.12109,12.121093 c 0.71484,-0.714843 1.72266,-1.132812 2.73438,-1.132812 1.01171,0 2.01953,0.417969 2.73828,1.132812 0.71484,0.714844 1.13281,1.722657 1.13281,2.738282 0,1.011718 -0.41797,2.019531 -1.13281,2.734375 z m -5.47266,-40.660157 c 0.71484,-0.714843 1.72266,-1.132812 2.73438,-1.132812 1.01171,0 2.01953,0.417969 2.73828,1.132812 0.71484,0.71875 1.13281,1.726563 1.13281,2.738282 0,1.011718 -0.41797,2.019531 -1.13281,2.738281 0.71484,0.714844 1.13281,1.722656 1.13281,2.734375 0,1.015625 -0.41797,2.019531 -1.13281,2.738281 -0.71875,0.714844 -1.72657,1.132813 -2.73828,1.132813 -1.01172,0 -2.01954,-0.417969 -2.73438,-1.132813 l -12.12109,12.117188 -5.47266,-5.472657 12.11719,-12.117187 c -0.71485,-0.71875 -1.13281,-1.726563 -1.13281,-2.738281 0,-1.011719 0.41796,-2.019532 1.13281,-2.738282 0.71875,-0.714843 1.72656,-1.132812 2.73828,-1.132812 1.01172,0 2.01953,0.417969 2.73828,1.132812 z m -40.66016,5.476563 c -0.71875,-0.71875 -1.13281,-1.726563 -1.13281,-2.738281 0,-1.011719 0.41406,-2.019532 1.13281,-2.738282 0.71485,-0.714843 1.72266,-1.132812 2.73438,-1.132812 1.01562,0 2.02344,0.417969 2.73828,1.132812 0.71484,-0.714843 1.72266,-1.132812 2.73828,-1.132812 1.01172,0 2.01953,0.417969 2.73438,1.132812 0.71875,0.71875 1.13281,1.726563 1.13281,2.738282 0,1.011718 -0.41406,2.019531 -1.13281,2.738281 l 12.12109,12.117187 -5.47266,5.472657 -12.12109,-12.117188 c -0.71484,0.714844 -1.72266,1.132813 -2.73828,1.132813 -1.01172,0 -2.01953,-0.417969 -2.73438,-1.132813 -0.71875,-0.71875 -1.13281,-1.722656 -1.13281,-2.738281 0,-1.011719 0.41406,-2.019531 1.13281,-2.734375 z m 17.59375,17.589844 5.47266,-5.472657 5.47266,5.472657 -5.47266,5.476562 z m 0,0"
       style="fill:#e6de00;fill-opacity:1;fill-rule:nonzero;stroke:none" />
    <path
       id="path43"
       d="m 438.61328,211.51172 c -0.71484,0.71484 -1.72266,1.13281 -2.73828,1.13281 -1.01172,0 -2.01953,-0.41797 -2.73438,-1.13281 -0.71875,-0.71875 -1.13281,-1.72656 -1.13281,-2.73828 0,-1.01172 0.41406,-2.01953 1.13281,-2.73828 -0.71875,-0.71485 -1.13281,-1.72266 -1.13281,-2.73438 0,-1.01562 0.41406,-2.01953 1.13281,-2.73828 0.71485,-0.71484 1.72266,-1.13281 2.73438,-1.13281 1.01562,0 2.02344,0.41797 2.73828,1.13281 l 12.12109,-12.11719 5.47266,5.47266 -12.12109,12.11719 c 0.71875,0.71875 1.13281,1.72656 1.13281,2.73828 0,1.01172 -0.41406,2.01953 -1.13281,2.73828 -0.71485,0.71484 -1.72266,1.13281 -2.73438,1.13281 -1.01562,0 -2.02344,-0.41797 -2.73828,-1.13281 z m 40.66016,-5.47656 c 0.71484,0.71875 1.13281,1.72656 1.13281,2.73828 0,1.01172 -0.41797,2.01953 -1.13281,2.73828 -0.71875,0.71484 -1.72657,1.13281 -2.73828,1.13281 -1.01172,0 -2.01954,-0.41797 -2.73829,-1.13281 -0.71484,0.71484 -1.72265,1.13281 -2.73437,1.13281 -1.01172,0 -2.01953,-0.41797 -2.73828,-1.13281 -0.71485,-0.71875 -1.13281,-1.72656 -1.13281,-2.73828 0,-1.01172 0.41796,-2.01953 1.13281,-2.73828 l -12.11719,-12.11719 5.47266,-5.47266 12.11718,12.11719 c 0.71875,-0.71484 1.72657,-1.13281 2.73829,-1.13281 1.01171,0 2.01953,0.41797 2.73828,1.13281 0.71484,0.71875 1.13281,1.72266 1.13281,2.73828 0,1.01172 -0.41797,2.01953 -1.13281,2.73438 z m -5.47657,-40.65625 c 0.71875,-0.71875 1.72657,-1.13282 2.73829,-1.13282 1.01171,0 2.01953,0.41407 2.73828,1.13282 0.71484,0.71484 1.13281,1.72265 1.13281,2.73437 0,1.01563 -0.41797,2.02344 -1.13281,2.73828 0.71484,0.71485 1.13281,1.72266 1.13281,2.73828 0,1.01172 -0.41797,2.01953 -1.13281,2.73438 -0.71875,0.71875 -1.72657,1.13281 -2.73828,1.13281 -1.01172,0 -2.01954,-0.41406 -2.73829,-1.13281 l -12.11718,12.12109 -5.47266,-5.47265 12.11719,-12.1211 c -0.71485,-0.71484 -1.13281,-1.72265 -1.13281,-2.73828 0,-1.01172 0.41796,-2.01953 1.13281,-2.73437 0.71875,-0.71875 1.72656,-1.13282 2.73828,-1.13282 1.01172,0 2.01953,0.41407 2.73437,1.13282 z m -40.65625,5.47265 c -0.71875,-0.71484 -1.13281,-1.72265 -1.13281,-2.73828 0,-1.01172 0.41406,-2.01953 1.13281,-2.73437 0.71485,-0.71875 1.72266,-1.13282 2.73438,-1.13282 1.01562,0 2.02344,0.41407 2.73828,1.13282 0.71484,-0.71875 1.72266,-1.13282 2.73828,-1.13282 1.01172,0 2.01953,0.41407 2.73438,1.13282 0.71875,0.71484 1.13281,1.72265 1.13281,2.73437 0,1.01563 -0.41406,2.02344 -1.13281,2.73828 l 12.12109,12.1211 -5.47266,5.47265 -12.12109,-12.12109 c -0.71484,0.71875 -1.72266,1.13281 -2.73828,1.13281 -1.01172,0 -2.01953,-0.41406 -2.73438,-1.13281 -0.71875,-0.71485 -1.13281,-1.72266 -1.13281,-2.73438 0,-1.01562 0.41406,-2.02343 1.13281,-2.73828 z m 17.59375,17.59375 5.47266,-5.47265 5.47266,5.47265 -5.47266,5.47266 z m 0,0"
       style="fill:#e6de00;fill-opacity:1;fill-rule:nonzero;stroke:none" />
    <path
       id="path45"
       d="m 537.20703,211.51172 c -0.71484,0.71484 -1.72266,1.13281 -2.73828,1.13281 -1.01172,0 -2.01953,-0.41797 -2.73438,-1.13281 -0.71875,-0.71875 -1.13281,-1.72656 -1.13281,-2.73828 0,-1.01172 0.41406,-2.01953 1.13281,-2.73828 -0.71875,-0.71485 -1.13281,-1.72266 -1.13281,-2.73438 0,-1.01562 0.41406,-2.01953 1.13281,-2.73828 0.71485,-0.71484 1.72266,-1.13281 2.73438,-1.13281 1.01562,0 2.02344,0.41797 2.73828,1.13281 l 12.12109,-12.11719 5.47266,5.47266 -12.12109,12.11719 c 0.71875,0.71875 1.13281,1.72656 1.13281,2.73828 0,1.01172 -0.41406,2.01953 -1.13281,2.73828 -0.71485,0.71484 -1.72266,1.13281 -2.73438,1.13281 -1.01562,0 -2.02344,-0.41797 -2.73828,-1.13281 z m 40.66016,-5.47656 c 0.71484,0.71875 1.13281,1.72656 1.13281,2.73828 0,1.01172 -0.41797,2.01953 -1.13281,2.73828 -0.71875,0.71484 -1.72657,1.13281 -2.73828,1.13281 -1.01172,0 -2.01954,-0.41797 -2.73829,-1.13281 -0.71484,0.71484 -1.72265,1.13281 -2.73437,1.13281 -1.01563,0 -2.01953,-0.41797 -2.73828,-1.13281 -0.71485,-0.71875 -1.13281,-1.72656 -1.13281,-2.73828 0,-1.01172 0.41796,-2.01953 1.13281,-2.73828 l -12.11719,-12.11719 5.47266,-5.47266 12.11718,12.11719 c 0.71875,-0.71484 1.72657,-1.13281 2.73829,-1.13281 1.01171,0 2.01953,0.41797 2.73828,1.13281 0.71484,0.71875 1.13281,1.72266 1.13281,2.73828 0,1.01172 -0.41797,2.01953 -1.13281,2.73438 z m -5.47657,-40.65625 c 0.71875,-0.71875 1.72657,-1.13282 2.73829,-1.13282 1.01171,0 2.01953,0.41407 2.73828,1.13282 0.71484,0.71484 1.13281,1.72265 1.13281,2.73437 0,1.01563 -0.41797,2.02344 -1.13281,2.73828 0.71484,0.71485 1.13281,1.72266 1.13281,2.73828 0,1.01172 -0.41797,2.01953 -1.13281,2.73438 -0.71875,0.71875 -1.72657,1.13281 -2.73828,1.13281 -1.01172,0 -2.01954,-0.41406 -2.73829,-1.13281 l -12.11718,12.12109 -5.47266,-5.47265 12.11719,-12.1211 c -0.71485,-0.71484 -1.13281,-1.72265 -1.13281,-2.73828 0,-1.01172 0.41796,-2.01953 1.13281,-2.73437 0.71875,-0.71875 1.72656,-1.13282 2.73828,-1.13282 1.01172,0 2.01953,0.41407 2.73437,1.13282 z m -40.65625,5.47265 c -0.71875,-0.71484 -1.13281,-1.72265 -1.13281,-2.73828 0,-1.01172 0.41406,-2.01953 1.13281,-2.73437 0.71485,-0.71875 1.72266,-1.13282 2.73438,-1.13282 1.01562,0 2.02344,0.41407 2.73828,1.13282 0.71484,-0.71875 1.72266,-1.13282 2.73828,-1.13282 1.01172,0 2.01953,0.41407 2.73438,1.13282 0.71875,0.71484 1.13281,1.72265 1.13281,2.73437 0,1.01563 -0.41406,2.02344 -1.13281,2.73828 l 12.12109,12.1211 -5.47266,5.47265 -12.12109,-12.12109 c -0.71484,0.71875 -1.72266,1.13281 -2.73828,1.13281 -1.01172,0 -2.01953,-0.41406 -2.73438,-1.13281 -0.71875,-0.71485 -1.13281,-1.72266 -1.13281,-2.73438 0,-1.01562 0.41406,-2.02343 1.13281,-2.73828 z m 17.59375,17.59375 5.47266,-5.47265 5.47266,5.47265 -5.47266,5.47266 z m 0,0"
       style="fill:#e6de00;fill-opacity:1;fill-rule:nonzero;stroke:none" />
    <path
       id="path47"
       d="m 340.01953,211.51172 c -0.71484,0.71484 -1.72266,1.13281 -2.73828,1.13281 -1.01172,0 -2.01953,-0.41797 -2.73438,-1.13281 -0.71875,-0.71875 -1.13281,-1.72656 -1.13281,-2.73828 0,-1.01172 0.41406,-2.01953 1.13281,-2.73828 -0.71875,-0.71485 -1.13281,-1.72266 -1.13281,-2.73438 0,-1.01562 0.41406,-2.01953 1.13281,-2.73828 0.71485,-0.71484 1.72266,-1.13281 2.73438,-1.13281 1.01562,0 2.02344,0.41797 2.73828,1.13281 l 12.12109,-12.11719 5.47266,5.47266 -12.12109,12.11719 c 0.71875,0.71875 1.13281,1.72656 1.13281,2.73828 0,1.01172 -0.41406,2.01953 -1.13281,2.73828 -0.71485,0.71484 -1.72266,1.13281 -2.73438,1.13281 -1.01562,0 -2.02344,-0.41797 -2.73828,-1.13281 z m 40.66016,-5.47656 c 0.71484,0.71875 1.13281,1.72656 1.13281,2.73828 0,1.01172 -0.41797,2.01953 -1.13281,2.73828 -0.71875,0.71484 -1.72657,1.13281 -2.73828,1.13281 -1.01172,0 -2.01954,-0.41797 -2.73438,-1.13281 -0.71875,0.71484 -1.72656,1.13281 -2.73828,1.13281 -1.01172,0 -2.01953,-0.41797 -2.73828,-1.13281 -0.71485,-0.71875 -1.13281,-1.72656 -1.13281,-2.73828 0,-1.01172 0.41796,-2.01953 1.13281,-2.73828 l -12.11719,-12.11719 5.47266,-5.47266 12.12109,12.11719 c 0.71484,-0.71484 1.72266,-1.13281 2.73438,-1.13281 1.01171,0 2.01953,0.41797 2.73828,1.13281 0.71484,0.71875 1.13281,1.72266 1.13281,2.73828 0,1.01172 -0.41797,2.01953 -1.13281,2.73438 z m -5.47266,-40.65625 c 0.71484,-0.71875 1.72266,-1.13282 2.73438,-1.13282 1.01171,0 2.01953,0.41407 2.73828,1.13282 0.71484,0.71484 1.13281,1.72265 1.13281,2.73437 0,1.01563 -0.41797,2.02344 -1.13281,2.73828 0.71484,0.71485 1.13281,1.72266 1.13281,2.73828 0,1.01172 -0.41797,2.01953 -1.13281,2.73438 -0.71875,0.71875 -1.72657,1.13281 -2.73828,1.13281 -1.01172,0 -2.01954,-0.41406 -2.73438,-1.13281 l -12.12109,12.12109 -5.47266,-5.47265 12.11719,-12.1211 c -0.71485,-0.71484 -1.13281,-1.72265 -1.13281,-2.73828 0,-1.01172 0.41796,-2.01953 1.13281,-2.73437 0.71875,-0.71875 1.72656,-1.13282 2.73828,-1.13282 1.01172,0 2.01953,0.41407 2.73828,1.13282 z m -40.66016,5.47265 c -0.71875,-0.71484 -1.13281,-1.72265 -1.13281,-2.73828 0,-1.01172 0.41406,-2.01953 1.13281,-2.73437 0.71485,-0.71875 1.72266,-1.13282 2.73438,-1.13282 1.01562,0 2.02344,0.41407 2.73828,1.13282 0.71484,-0.71875 1.72266,-1.13282 2.73828,-1.13282 1.01172,0 2.01953,0.41407 2.73438,1.13282 0.71875,0.71484 1.13281,1.72265 1.13281,2.73437 0,1.01563 -0.41406,2.02344 -1.13281,2.73828 l 12.12109,12.1211 -5.47266,5.47265 -12.12109,-12.12109 c -0.71484,0.71875 -1.72266,1.13281 -2.73828,1.13281 -1.01172,0 -2.01953,-0.41406 -2.73438,-1.13281 -0.71875,-0.71485 -1.13281,-1.72266 -1.13281,-2.73438 0,-1.01562 0.41406,-2.02343 1.13281,-2.73828 z m 17.59375,17.59375 5.47266,-5.47265 5.47266,5.47265 -5.47266,5.47266 z m 0,0"
       style="fill:#e6de00;fill-opacity:1;fill-rule:nonzero;stroke:none" />
    <path
       id="path49"
       d="m 16,10.613281 h 95.4375 V 99.015625 H 16 Z m 0,0"
       style="fill:#ffffff;fill-opacity:1;fill-rule:nonzero;stroke:none" />
    <path
       id="path51"
       d="m 16,148.51562 h 95.4375 v 88.40235 H 16 Z m 0,0"
       style="fill:#ffffff;fill-opacity:1;fill-rule:nonzero;stroke:none" />
    <path
       id="path53"
       d="m 211.53125,10.613281 h 95.4375 v 88.402344 h -95.4375 z m 0,0"
       style="fill:#ffffff;fill-opacity:1;fill-rule:nonzero;stroke:none" />
    <path
       id="path55"
       d="m 292.4375,37.320313 c 1.35547,-1.101563 2.24609,-2.753907 2.42969,-4.488282 0.17968,-1.738281 -0.35547,-3.539062 -1.45703,-4.894531 -1.10157,-1.355469 -2.75,-2.25 -4.48829,-2.429687 -1.73437,-0.179688 -3.53515,0.355468 -4.89062,1.457031 -1.10156,-1.355469 -2.75391,-2.25 -4.48828,-2.429688 -1.73828,-0.183593 -3.53906,0.351563 -4.89453,1.453125 -1.35547,1.101563 -2.25,2.753907 -2.42969,4.488282 -0.17969,1.738281 0.35547,3.535156 1.45703,4.890625 L 261.10156,45.574219 250.89453,33 c 1.35547,-1.097656 2.25,-2.75 2.42969,-4.488281 0.17969,-1.734375 -0.35547,-3.535156 -1.45703,-4.890625 -1.09766,-1.355469 -2.75,-2.25 -4.48828,-2.429688 -1.73438,-0.179687 -3.53516,0.355469 -4.89063,1.453125 -1.10156,-1.355468 -2.75391,-2.25 -4.48828,-2.429687 -1.73828,-0.179688 -3.53516,0.355469 -4.89063,1.457031 -1.35546,1.097656 -2.25,2.75 -2.43359,4.488281 -0.17969,1.734375 0.35547,3.535157 1.45703,4.890625 -1.35547,1.101563 -2.25,2.753907 -2.42969,4.488282 -0.17968,1.738281 0.35547,3.535156 1.45313,4.890625 1.10156,1.355468 2.75391,2.25 4.48828,2.433593 1.73828,0.179688 3.53906,-0.355468 4.89453,-1.457031 l 10.20703,12.574219 -65.17187,52.898441 c -1.10156,-1.35547 -2.75391,-2.25 -4.48828,-2.42969 -1.73828,-0.17969 -3.53907,0.35547 -4.89453,1.45312 -1.35547,1.10157 -2.2461,2.75391 -2.42969,4.48829 -0.17969,1.73828 0.35547,3.53906 1.45703,4.89453 -1.35547,1.10156 -2.25,2.75 -2.42969,4.48828 -0.18359,1.73437 0.35547,3.53515 1.45313,4.89062 1.10156,1.35547 2.7539,2.25 4.48828,2.42969 1.73828,0.18359 3.53906,-0.35156 4.89453,-1.45312 1.09766,1.35546 2.75,2.25 4.48828,2.42968 1.73438,0.17969 3.53516,-0.35547 4.89063,-1.45703 1.35546,-1.09765 2.25,-2.75 2.42968,-4.48828 0.17969,-1.73437 -0.35547,-3.53516 -1.45312,-4.89062 l 65.16797,-52.898442 10.20703,12.574218 c -1.35547,1.101563 -2.25,2.753907 -2.42969,4.488282 -0.17969,1.738281 0.35547,3.539062 1.45703,4.894531 1.09766,1.355469 2.75,2.25 4.48828,2.429687 1.73438,0.179688 3.53516,-0.355468 4.89063,-1.457031 1.10156,1.355469 2.7539,2.25 4.48828,2.429688 1.73828,0.183593 3.53516,-0.351563 4.89062,-1.453125 1.35547,-1.101563 2.25,-2.753907 2.4336,-4.488282 0.17969,-1.738281 -0.35547,-3.535156 -1.45703,-4.890625 1.35547,-1.101562 2.25,-2.753906 2.42968,-4.488281 0.17969,-1.738281 -0.35546,-3.539062 -1.45312,-4.894531 -1.10156,-1.355469 -2.75391,-2.25 -4.48828,-2.429688 -1.73828,-0.179687 -3.53906,0.355469 -4.89453,1.457032 L 269.50391,55.929688 282.07812,45.726563 c 1.10157,1.355468 2.75391,2.246093 4.48829,2.429687 1.73828,0.179688 3.53906,-0.355469 4.89453,-1.457031 1.35547,-1.101563 2.25,-2.75 2.42968,-4.488281 0.17969,-1.734375 -0.35546,-3.535157 -1.45312,-4.890625 z m 0,0"
       style="fill:#e6de00;fill-opacity:1;fill-rule:nonzero;stroke:none" />
    <path
       id="path57"
       d="m 30.53125,37.320313 c -1.355469,-1.101563 -2.25,-2.753907 -2.429687,-4.488282 -0.179688,-1.738281 0.355468,-3.539062 1.453125,-4.894531 1.101562,-1.355469 2.753906,-2.25 4.488281,-2.429687 1.738281,-0.179688 3.539062,0.355468 4.894531,1.457031 1.101563,-1.355469 2.75,-2.25 4.488281,-2.429688 1.734375,-0.183593 3.535157,0.351563 4.890625,1.453125 1.355469,1.101563 2.25,2.753907 2.429688,4.488282 0.183594,1.738281 -0.351563,3.535156 -1.453125,4.890625 L 61.867188,45.574219 72.074219,33 c -1.355469,-1.097656 -2.25,-2.75 -2.429688,-4.488281 C 69.464844,26.777344 70,24.976563 71.097656,23.621094 c 1.101563,-1.355469 2.753907,-2.25 4.488282,-2.429688 1.738281,-0.179687 3.539062,0.355469 4.894531,1.453125 1.097656,-1.355468 2.75,-2.25 4.488281,-2.429687 1.734375,-0.179688 3.535156,0.355469 4.890625,1.457031 1.355469,1.097656 2.25,2.75 2.429688,4.488281 0.179687,1.734375 -0.355469,3.535157 -1.453125,4.890625 1.355468,1.101563 2.25,2.753907 2.429687,4.488282 0.179688,1.738281 -0.355469,3.535156 -1.457031,4.890625 -1.097656,1.355468 -2.75,2.25 -4.488281,2.433593 -1.734375,0.179688 -3.535157,-0.355468 -4.890625,-1.457031 L 72.222656,53.980469 137.39453,106.87891 c 1.09766,-1.35547 2.75,-2.25 4.48828,-2.42969 1.73438,-0.17969 3.53516,0.35547 4.89063,1.45312 1.35547,1.10157 2.25,2.75391 2.42968,4.48829 0.1836,1.73828 -0.35546,3.53906 -1.45312,4.89453 1.35547,1.10156 2.25,2.75 2.42969,4.48828 0.17968,1.73437 -0.35547,3.53515 -1.45703,4.89062 -1.09766,1.35547 -2.75,2.25 -4.48829,2.42969 -1.73437,0.18359 -3.53515,-0.35156 -4.89062,-1.45312 -1.10156,1.35546 -2.75,2.25 -4.48828,2.42968 -1.73828,0.17969 -3.53516,-0.35547 -4.89063,-1.45703 -1.35547,-1.09765 -2.25,-2.75 -2.43359,-4.48828 -0.17969,-1.73437 0.35547,-3.53516 1.45703,-4.89062 L 63.816406,64.335938 53.609375,76.910156 c 1.355469,1.101563 2.25,2.753907 2.433594,4.488282 0.179687,1.738281 -0.355469,3.539062 -1.457031,4.894531 -1.101563,1.355469 -2.753907,2.25 -4.488282,2.429687 -1.738281,0.179688 -3.535156,-0.355468 -4.890625,-1.457031 -1.101562,1.355469 -2.753906,2.25 -4.488281,2.429688 -1.738281,0.183593 -3.539062,-0.351563 -4.894531,-1.453125 -1.355469,-1.101563 -2.25,-2.753907 -2.429688,-4.488282 -0.179687,-1.738281 0.355469,-3.535156 1.457032,-4.890625 -1.355469,-1.101562 -2.25,-2.753906 -2.433594,-4.488281 -0.179688,-1.738281 0.355469,-3.539062 1.457031,-4.894531 1.101563,-1.355469 2.75,-2.25 4.488281,-2.429688 1.734375,-0.179687 3.535157,0.355469 4.890625,1.457032 L 53.460938,55.929688 40.886719,45.726563 c -1.101563,1.355468 -2.75,2.246093 -4.488281,2.429687 -1.734375,0.179688 -3.535157,-0.355469 -4.890625,-1.457031 -1.355469,-1.101563 -2.25,-2.75 -2.429688,-4.488281 -0.183594,-1.734375 0.351563,-3.535157 1.453125,-4.890625 z m 0,0"
       style="fill:#e6de00;fill-opacity:1;fill-rule:nonzero;stroke:none" />
    <path
       id="path59"
       d="m 161.46484,64.671875 c -0.0234,6.589844 -0.0625,19.777344 -0.13281,30.722656 -0.0703,10.949219 -0.16797,19.660159 0.57422,24.066409 0.74219,4.40234 2.32812,4.5039 5.96484,4.42969 3.63672,-0.0742 9.32813,-0.32422 18.16407,-0.3711 8.83593,-0.0508 20.8125,0.0977 28.16406,0.17188 7.35156,0.0742 10.47265,0.0742 11.98437,-1.01563 1.50782,-1.08984 1.60547,-3.26562 0.8125,-7.15234 -0.79297,-3.88281 -2.47656,-9.47656 -4.73047,-15.16797 -2.25,-5.691407 -5.07031,-11.484376 -8.21484,-15.863282 -3.14453,-4.382813 -6.60937,-7.351563 -11.42578,-10.703125 -4.82031,-3.351563 -10.92188,-7.042969 -16.53906,-9.566407 -5.61719,-2.523437 -10.71485,-3.863281 -14.50391,-4.53125 -3.78516,-0.667968 -6.26172,-0.667968 -7.72656,-0.824218 -1.46485,-0.15625 -1.91797,-0.472657 -2.14453,-0.628907 -0.22657,-0.160156 -0.22657,-0.160156 -0.2461,6.433594 z m 0,0"
       style="fill:#de0533;fill-opacity:1;fill-rule:nonzero;stroke:#000000;stroke-width:0.296978;stroke-linecap:butt;stroke-linejoin:miter;stroke-miterlimit:4;stroke-opacity:1" />
    <path
       id="path61"
       d="m 211.53125,148.51562 h 95.4375 v 88.40235 h -95.4375 z m 0,0"
       style="fill:#ffffff;fill-opacity:1;fill-rule:nonzero;stroke:none" />
    <path
       id="path63"
       d="m 292.4375,210.21094 c 1.35547,1.10156 2.24609,2.75 2.42969,4.48828 0.17968,1.73828 -0.35547,3.53515 -1.45703,4.89062 -1.10157,1.35547 -2.75,2.25 -4.48829,2.4336 -1.73437,0.17968 -3.53515,-0.35547 -4.89062,-1.45703 -1.10156,1.35546 -2.75391,2.25 -4.48828,2.42968 -1.73828,0.17969 -3.53906,-0.35547 -4.89453,-1.45312 -1.35547,-1.10156 -2.25,-2.75391 -2.42969,-4.48828 -0.17969,-1.73828 0.35547,-3.53907 1.45703,-4.89453 l -12.57422,-10.20704 -10.20703,12.57422 c 1.35547,1.10157 2.25,2.75391 2.42969,4.48828 0.17969,1.73829 -0.35547,3.53907 -1.45703,4.89454 -1.09766,1.35546 -2.75,2.25 -4.48828,2.42968 -1.73438,0.17969 -3.53516,-0.35547 -4.89063,-1.45703 -1.10156,1.35938 -2.75391,2.25 -4.48828,2.4336 -1.73828,0.17968 -3.53516,-0.35547 -4.89063,-1.45704 -1.35546,-1.10156 -2.25,-2.75 -2.43359,-4.48828 -0.17969,-1.73437 0.35547,-3.53515 1.45703,-4.89062 -1.35547,-1.10156 -2.25,-2.75391 -2.42969,-4.48828 -0.17968,-1.73828 0.35547,-3.53907 1.45313,-4.89453 1.10156,-1.35547 2.75391,-2.25 4.48828,-2.42969 1.73828,-0.17969 3.53906,0.35547 4.89453,1.45703 l 10.20703,-12.57422 -65.17187,-52.89844 c -1.10156,1.35547 -2.75391,2.25 -4.48828,2.42969 -1.73828,0.17969 -3.53907,-0.35547 -4.89453,-1.45703 -1.35547,-1.09766 -2.2461,-2.75 -2.42969,-4.48828 -0.17969,-1.73438 0.35547,-3.53516 1.45703,-4.89063 -1.35547,-1.10156 -2.25,-2.7539 -2.42969,-4.48828 -0.18359,-1.73828 0.35547,-3.53515 1.45313,-4.89453 1.10156,-1.35547 2.7539,-2.24609 4.48828,-2.42969 1.73828,-0.17968 3.53906,0.35547 4.89453,1.45704 1.09766,-1.35547 2.75,-2.25 4.48828,-2.42969 1.73438,-0.17969 3.53516,0.35547 4.89063,1.45312 1.35546,1.10157 2.25,2.75391 2.42968,4.48828 0.17969,1.73829 -0.35547,3.53907 -1.45312,4.89453 l 65.16797,52.89844 10.20703,-12.57812 c -1.35547,-1.09766 -2.25,-2.75 -2.42969,-4.48828 -0.17969,-1.73438 0.35547,-3.53516 1.45703,-4.89063 1.09766,-1.35547 2.75,-2.25 4.48828,-2.42969 1.73438,-0.17968 3.53516,0.35547 4.89063,1.45313 1.10156,-1.35547 2.7539,-2.2461 4.48828,-2.42969 1.73828,-0.17969 3.53516,0.35547 4.89062,1.45703 1.35547,1.10156 2.25,2.75 2.4336,4.48828 0.17969,1.73438 -0.35547,3.53516 -1.45703,4.89063 1.35547,1.10156 2.25,2.7539 2.42968,4.48828 0.17969,1.73828 -0.35546,3.53906 -1.45312,4.89453 -1.10156,1.35547 -2.75391,2.25 -4.48828,2.42969 -1.73828,0.17969 -3.53906,-0.35547 -4.89453,-1.45703 l -10.20703,12.57422 12.57421,10.20703 c 1.10157,-1.35547 2.75391,-2.25 4.48829,-2.42969 1.73828,-0.17969 3.53906,0.35547 4.89453,1.45703 1.35547,1.09766 2.25,2.75 2.42968,4.48828 0.17969,1.73438 -0.35546,3.53516 -1.45312,4.89063 z m 0,0"
       style="fill:#e6de00;fill-opacity:1;fill-rule:nonzero;stroke:none" />
    <path
       id="path65"
       d="m 30.53125,210.21094 c -1.355469,1.10156 -2.25,2.75 -2.429687,4.48828 -0.179688,1.73828 0.355468,3.53515 1.453125,4.89062 1.101562,1.35547 2.753906,2.25 4.488281,2.4336 1.738281,0.17968 3.539062,-0.35547 4.894531,-1.45703 1.101563,1.35546 2.75,2.25 4.488281,2.42968 1.734375,0.17969 3.535157,-0.35547 4.890625,-1.45312 1.355469,-1.10156 2.25,-2.75391 2.429688,-4.48828 0.183594,-1.73828 -0.351563,-3.53907 -1.453125,-4.89453 l 12.574219,-10.20704 10.207031,12.57422 c -1.355469,1.10157 -2.25,2.75391 -2.429688,4.48828 -0.179687,1.73829 0.355469,3.53907 1.453125,4.89454 1.101563,1.35546 2.753907,2.25 4.488282,2.42968 1.738281,0.17969 3.539062,-0.35547 4.894531,-1.45703 1.097656,1.35938 2.75,2.25 4.488281,2.4336 1.734375,0.17968 3.535156,-0.35547 4.890625,-1.45704 1.355469,-1.10156 2.25,-2.75 2.429688,-4.48828 0.179687,-1.73437 -0.355469,-3.53515 -1.453125,-4.89062 1.355468,-1.10156 2.25,-2.75391 2.429687,-4.48828 0.179688,-1.73828 -0.355469,-3.53907 -1.457031,-4.89453 -1.097656,-1.35547 -2.75,-2.25 -4.488281,-2.42969 -1.734375,-0.17969 -3.535157,0.35547 -4.890625,1.45703 L 72.222656,193.55078 137.39453,140.65234 c 1.09766,1.35547 2.75,2.25 4.48828,2.42969 1.73438,0.17969 3.53516,-0.35547 4.89063,-1.45703 1.35547,-1.09766 2.25,-2.75 2.42968,-4.48828 0.1836,-1.73438 -0.35546,-3.53516 -1.45312,-4.89063 1.35547,-1.10156 2.25,-2.7539 2.42969,-4.48828 0.17968,-1.73828 -0.35547,-3.53515 -1.45703,-4.89453 -1.09766,-1.35547 -2.75,-2.24609 -4.48829,-2.42969 -1.73437,-0.17968 -3.53515,0.35547 -4.89062,1.45704 -1.10156,-1.35547 -2.75,-2.25 -4.48828,-2.42969 -1.73828,-0.17969 -3.53516,0.35547 -4.89063,1.45312 -1.35547,1.10157 -2.25,2.75391 -2.43359,4.48828 -0.17969,1.73829 0.35547,3.53907 1.45703,4.89453 L 63.816406,183.19531 53.609375,170.61719 c 1.355469,-1.09766 2.25,-2.75 2.433594,-4.48828 0.179687,-1.73438 -0.355469,-3.53516 -1.457031,-4.89063 -1.101563,-1.35547 -2.753907,-2.25 -4.488282,-2.42969 -1.738281,-0.17968 -3.535156,0.35547 -4.890625,1.45313 -1.101562,-1.35547 -2.753906,-2.2461 -4.488281,-2.42969 -1.738281,-0.17969 -3.539062,0.35547 -4.894531,1.45703 -1.355469,1.10156 -2.25,2.75 -2.429688,4.48828 -0.179687,1.73438 0.355469,3.53516 1.457032,4.89063 -1.355469,1.10156 -2.25,2.7539 -2.433594,4.48828 -0.179688,1.73828 0.355469,3.53906 1.457031,4.89453 1.101563,1.35547 2.75,2.25 4.488281,2.42969 1.734375,0.17969 3.535157,-0.35547 4.890625,-1.45703 l 10.207032,12.57422 -12.574219,10.20703 c -1.101563,-1.35547 -2.75,-2.25 -4.488281,-2.42969 -1.734375,-0.17969 -3.535157,0.35547 -4.890625,1.45703 -1.355469,1.09766 -2.25,2.75 -2.429688,4.48828 -0.183594,1.73438 0.351563,3.53516 1.453125,4.89063 z m 0,0"
       style="fill:#e6de00;fill-opacity:1;fill-rule:nonzero;stroke:none" />
    <path
       id="path67"
       d="m 128.51953,90.9375 c -0.11719,21.88281 -0.23437,43.76562 0.0508,54.70703 0.28125,10.94141 0.96094,10.94141 3.92188,10.94141 2.95703,0 8.20312,0 19.02734,0.004 10.82031,0.008 26.88281,0.0195 35.05078,-0.39062 8.16797,-0.40625 8.27344,-1.23828 7.88281,-3.79297 -0.39062,-2.55859 -1.27343,-6.85156 -2.70312,-11.58203 -1.42969,-4.73047 -3.40625,-9.90235 -5.61719,-14.32813 -2.21094,-4.42578 -4.66406,-8.10156 -7.65625,-11.67578 -2.99609,-3.57031 -6.53515,-7.04297 -11.77734,-10.55078 -5.24219,-3.5039 -12.1875,-7.042967 -18.00781,-9.187499 C 142.875,92.9375 138.17578,92.1875 135,91.730469 131.82812,91.269531 130.17578,91.101563 128.51953,90.9375"
       style="fill:#de0533;fill-opacity:1;fill-rule:nonzero;stroke:#000000;stroke-width:0.288809;stroke-linecap:butt;stroke-linejoin:miter;stroke-miterlimit:4;stroke-opacity:1" />
    <path
       id="path69"
       d="m 96.125,113.60156 c -0.402344,2.59766 -0.488281,5.42578 -0.464844,7.13672 0.01953,1.71094 0.144532,2.30078 0.949219,2.57813 0.800781,0.27343 2.28125,0.23047 8.042965,0.2539 5.76563,0.0195 15.82032,0.10547 26.04297,0.10547 10.21875,0 20.60938,-0.0859 25.86719,-0.48828 5.25781,-0.39844 5.38672,-1.11719 5.38672,-6.90234 0,-5.78516 -0.12891,-16.644535 -0.12891,-26.781254 0,-10.136718 0.12891,-19.554687 0.16406,-24.734375 0.0391,-5.179687 -0.008,-6.046875 -0.64062,-6.425781 -0.63672,-0.378906 -1.85156,-0.238281 -3.79297,-0.01563 -1.9375,0.21875 -4.59766,0.511719 -8.46484,1.253906 -3.86328,0.738282 -8.92969,1.921875 -13.36719,3.777344 -4.43359,1.859375 -8.23437,4.394531 -11.95312,7.097656 -3.71485,2.703125 -7.34766,5.574219 -10.60157,8.953125 -3.25,3.378907 -6.12109,7.265625 -8.59375,11.828125 -2.47265,4.558594 -4.53906,9.796884 -5.933591,13.597664 -1.394531,3.80078 -2.113281,6.16797 -2.511719,8.76562 z m 0,0"
       style="fill:#de0533;fill-opacity:1;fill-rule:nonzero;stroke:none" />
    <path
       id="path71"
       d="m 95.933594,125.00391 c -0.08594,1.96484 0.335937,5.93359 1.433594,10.75 1.101562,4.8164 2.875002,10.47265 4.835942,15.03515 1.96484,4.5625 4.12109,8.02735 6.69531,11.51172 2.57812,3.48438 5.57812,6.98828 9.10156,10.00781 3.52734,3.01953 7.58203,5.55469 11.95312,7.96094 4.3711,2.41016 9.0625,4.69141 13.34766,6.125 4.28906,1.4375 8.17188,2.02734 10.875,2.38672 2.70313,0.35937 4.22656,0.48437 5.39453,0.50781 1.16797,0.0234 1.6875,-0.0312 2.00391,-0.55859 0.3164,-0.52735 0.28125,-1.51563 0.16015,-6.02344 -0.125,-4.50391 -0.33593,-12.53125 -0.33593,-22.58203 0,-10.05469 0.21093,-22.13281 0.3164,-28.55078 0.10547,-6.42188 0.10547,-7.18359 -0.125,-7.64844 -0.23437,-0.46094 -0.69531,-0.63281 -2.07031,-0.71484 -1.37109,-0.0859 -3.65234,-0.0859 -11.00391,-0.043 -7.34765,0.043 -19.76562,0.125 -29.16406,0.125 -9.39453,0 -15.77343,-0.082 -19.25781,-0.14844 -3.484375,-0.0625 -4.074219,-0.10547 -4.160156,1.85938 z m 0,0"
       style="fill:#1c2163;fill-opacity:1;fill-rule:nonzero;stroke:#000000;stroke-width:0.253418;stroke-linecap:butt;stroke-linejoin:miter;stroke-miterlimit:4;stroke-opacity:1" />
    <path
       id="path73"
       d="m 162.24219,128.16406 c -0.50782,5.10547 -0.56641,15.4375 -0.625,25.26563 -0.0586,9.82422 -0.1211,19.14453 -0.14844,24.63672 -0.0312,5.49609 -0.0312,7.16796 0.0156,8.21875 0.043,1.04687 0.27735,2.14453 1.35547,2.41406 1.07422,0.26953 3.0625,0.0469 7.72657,-1.02344 4.66796,-1.06641 12.01562,-2.97656 18.46875,-5.72656 6.44921,-2.7461 12.0039,-6.33203 16.84375,-10.69141 4.83593,-4.35937 8.95703,-9.49609 12.24218,-14.7539 3.28516,-5.25391 5.73438,-10.63282 7.22266,-15.87891 1.48437,-5.25 2.11719,-11.45703 1.72656,-14.44141 -0.38672,-2.98828 -1.73828,-3.29687 -4.35937,-3.36328 -2.61719,-0.0625 -6.5,0.11719 -14.80078,0.26563 -8.30469,0.14844 -21.02735,0.26953 -28.97266,0.29687 -7.94141,0.0312 -11.10938,-0.0273 -13.16797,-0.11718 -2.0625,-0.0898 -3.01953,-0.21094 -3.52734,4.89843 z m 0,0"
       style="fill:#1c2163;fill-opacity:1;fill-rule:nonzero;stroke:#000000;stroke-width:0.253418;stroke-linecap:butt;stroke-linejoin:miter;stroke-miterlimit:4;stroke-opacity:1" />
    <path
       id="path75"
       d="m 111.4375,10.613281 h 50.04687 V 236.91797 H 111.4375 Z m 0,0"
       style="fill:#de0533;fill-opacity:1;fill-rule:nonzero;stroke:none" />
    <path
       id="path77"
       d="m 161.48437,10.613281 h 50.04688 V 236.91797 h -50.04688 z m 0,0"
       style="fill:#1c2163;fill-opacity:1;fill-rule:nonzero;stroke:none" />
    <path
       id="path79"
       d="m 229.26562,123.76563 c -45.1875,0 -90.375,0 -135.566401,0 M 161.48437,58.078125 c 0,43.789065 0,87.582035 0,131.371095 m 66.10938,-65.68359 c 0,17.23046 -6.96484,33.7539 -19.36328,45.93749 -12.39844,12.17969 -29.21094,19.02735 -46.7461,19.02735 -36.51171,0 -66.113276,-29.08594 -66.113276,-64.96484 0,-35.878911 29.601566,-64.964849 66.113276,-64.964849 17.53516,0 34.34766,6.84375 46.7461,19.027344 12.39844,12.183594 19.36328,28.707035 19.36328,45.937505 z m 0,0"
       style="fill:none;stroke:#e6de00;stroke-width:4.20021677;stroke-linecap:butt;stroke-linejoin:miter;stroke-miterlimit:4;stroke-opacity:1" />
    <path
       id="path81"
       d="m 119.93359,84.882813 h 3.28907 v 28.089847 h -3.28907 z m 0,0"
       style="fill:#e6de00;fill-opacity:1;fill-rule:nonzero;stroke:none" />
    <path
       id="path83"
       d="m 146.88672,111.79688 c -2.07813,1.09765 -4.66406,1.64453 -7.75781,1.64453 -3.9961,0 -7.19532,-1.28516 -9.59766,-3.85938 -2.40234,-2.57031 -3.60547,-5.94531 -3.60547,-10.124999 0,-4.492187 1.35156,-8.121093 4.05469,-10.890625 2.70312,-2.769531 6.13281,-4.152343 10.28515,-4.152343 2.66407,0 4.8711,0.382812 6.6211,1.15625 v 3.503906 c -2.01172,-1.121094 -4.23438,-1.683594 -6.66016,-1.683594 -3.22656,0 -5.84375,1.078125 -7.85547,3.230469 -2,2.15625 -2.99609,5.035156 -2.99609,8.640625 0,3.421871 0.93359,6.148441 2.80078,8.187501 1.87891,2.02344 4.33984,3.03516 7.38281,3.03516 2.82032,0 5.26172,-0.625 7.32813,-1.87891 z m 0,0"
       style="fill:#e6de00;fill-opacity:1;fill-rule:nonzero;stroke:none" />
    <path
       id="path85"
       d="m 189.27734,112.97266 h -4.01562 l -6.46485,-10.75391 c -0.19531,-0.32812 -0.41015,-0.78906 -0.64843,-1.39062 h -0.0781 c -0.1289,0.30078 -0.35156,0.76562 -0.66406,1.39062 l -6.66016,10.75391 h -4.03515 l 9.40234,-14.121097 -8.65625,-13.96875 h 4.03516 l 5.73828,9.871093 c 0.3789,0.65625 0.71094,1.308594 1,1.960938 h 0.0781 c 0.41797,-0.863281 0.78125,-1.542969 1.09375,-2.039063 l 5.97657,-9.792968 h 3.78125 l -8.83594,13.925781 z m 0,0"
       style="fill:#e6de00;fill-opacity:1;fill-rule:nonzero;stroke:none" />
    <path
       id="path87"
       d="m 208.92578,111.79688 c -2.07422,1.09765 -4.66016,1.64453 -7.75391,1.64453 -3.99609,0 -7.19531,-1.28516 -9.60156,-3.85938 -2.40234,-2.57031 -3.60156,-5.94531 -3.60156,-10.124999 0,-4.492187 1.35156,-8.121093 4.05469,-10.890625 2.70312,-2.769531 6.1289,-4.152343 10.28125,-4.152343 2.66406,0 4.87109,0.382812 6.62109,1.15625 v 3.503906 c -2.01172,-1.121094 -4.23047,-1.683594 -6.66016,-1.683594 -3.22265,0 -5.84375,1.078125 -7.85156,3.230469 -2,2.15625 -3,5.035156 -3,8.640625 0,3.421871 0.9336,6.148441 2.80078,8.187501 1.88282,2.02344 4.34375,3.03516 7.38672,3.03516 2.82031,0 5.26172,-0.625 7.32422,-1.87891 z m 0,0"
       style="fill:#e6de00;fill-opacity:1;fill-rule:nonzero;stroke:none" />
    <path
       id="path89"
       d="m 136.59766,163.11719 h -4.03516 l -14.45703,-22.39063 c -0.36328,-0.55859 -0.66406,-1.14844 -0.89844,-1.76172 h -0.11719 c 0.10157,0.60157 0.15625,1.88672 0.15625,3.85938 v 20.29297 h -3.29296 v -28.08985 h 4.27343 l 14.0625,22.03516 c 0.58594,0.91406 0.96485,1.54297 1.13672,1.88281 h 0.0781 c -0.13282,-0.80859 -0.19532,-2.1875 -0.19532,-4.13281 v -19.78516 h 3.28907 z m 0,0"
       style="fill:#e6de00;fill-opacity:1;fill-rule:nonzero;stroke:none" />
    <path
       id="path91"
       d="m 154.42187,163.11719 h -3.28906 v -12.8125 h -14.53515 v 12.8125 h -3.28907 v -28.08985 h 3.28907 v 12.32032 h 14.53515 v -12.32032 h 3.28906 z m 0,0"
       style="fill:#e6de00;fill-opacity:1;fill-rule:nonzero;stroke:none" />
    <path
       id="path93"
       d="m 188.00391,163.11719 h -4.58594 l -10.85156,-12.85157 c -0.40235,-0.48046 -0.65235,-0.80859 -0.74219,-0.97656 h -0.0781 v 13.82813 h -3.29297 v -28.08985 h 3.29297 v 13.20313 h 0.0781 c 0.18359,-0.28906 0.42969,-0.60938 0.74219,-0.96094 l 10.5,-12.24219 h 4.09375 l -12.04688,13.47657 z m 0,0"
       style="fill:#e6de00;fill-opacity:1;fill-rule:nonzero;stroke:none" />
    <path
       id="path95"
       d="m 209.33594,163.11719 h -3.64453 l -2.97657,-7.875 h -11.91015 l -2.80078,7.875 h -3.66407 l 10.77344,-28.08985 h 3.41016 z m -7.69922,-10.83203 -4.40625,-11.96875 c -0.14453,-0.39063 -0.28906,-1.01954 -0.4336,-1.87891 h -0.0781 c -0.12891,0.79687 -0.28125,1.42187 -0.44922,1.87891 l -4.36719,11.96875 z m 0,0"
       style="fill:#e6de00;fill-opacity:1;fill-rule:nonzero;stroke:none" />
    <path
       id="path97"
       d="M 0,99.011719 H 16 V 123.76563 H 0 Z m 0,0"
       style="fill:#1c2163;fill-opacity:1;fill-rule:nonzero;stroke:none" />
    <path
       id="path99"
       d="m 0,123.76563 h 16 v 24.7539 H 0 Z m 0,0"
       style="fill:#de0533;fill-opacity:1;fill-rule:nonzero;stroke:none" />
    <path
       id="path101"
       d="M 0,74.257813 H 16 V 99.011719 H 0 Z m 0,0"
       style="fill:#ffffff;fill-opacity:1;fill-rule:nonzero;stroke:none" />
    <path
       id="path103"
       d="m 0,49.507813 h 16 v 24.75 H 0 Z m 0,0"
       style="fill:#de0533;fill-opacity:1;fill-rule:nonzero;stroke:none" />
    <path
       id="path105"
       d="M 0,24.753906 H 16 V 49.507813 H 0 Z m 0,0"
       style="fill:#1c2163;fill-opacity:1;fill-rule:nonzero;stroke:none" />
    <path
       id="path107"
       d="M 0,0 H 16 V 24.753906 H 0 Z m 0,0"
       style="fill:#ffffff;fill-opacity:1;fill-rule:nonzero;stroke:none" />
    <path
       id="path109"
       d="m 0,148.51953 h 16 v 24.75391 H 0 Z m 0,0"
       style="fill:#ffffff;fill-opacity:1;fill-rule:nonzero;stroke:none" />
    <path
       id="path111"
       d="m 0,173.27344 h 16 v 24.75 H 0 Z m 0,0"
       style="fill:#1c2163;fill-opacity:1;fill-rule:nonzero;stroke:none" />
    <path
       id="path113"
       d="m 0,198.02344 h 16 v 24.7539 H 0 Z m 0,0"
       style="fill:#de0533;fill-opacity:1;fill-rule:nonzero;stroke:none" />
    <g
       style="clip-rule:nonzero"
       id="g117"
       clip-path="url(#clip3)">
      <path
         id="path115"
         d="m 0,222.77734 h 16 v 24.75391 H 0 Z m 0,0"
         style="fill:#ffffff;fill-opacity:1;fill-rule:nonzero;stroke:none" />
    </g>
    <path
       id="path119"
       d="m 387.15234,146.83203 c -0.71484,0.71484 -1.72265,1.13281 -2.73828,1.13281 -1.01172,0 -2.01953,-0.41797 -2.73437,-1.13281 -0.71875,-0.71875 -1.13282,-1.72656 -1.13282,-2.73828 0,-1.01172 0.41407,-2.01953 1.13282,-2.73828 -0.71875,-0.71485 -1.13282,-1.72266 -1.13282,-2.73438 0,-1.01562 0.41407,-2.01953 1.13282,-2.73828 0.71484,-0.71484 1.72265,-1.13281 2.73437,-1.13281 1.01563,0 2.02344,0.41797 2.73828,1.13281 l 12.1211,-12.11718 5.47265,5.47265 -12.12109,12.11719 c 0.71875,0.71875 1.13281,1.72656 1.13281,2.73828 0,1.01172 -0.41406,2.01953 -1.13281,2.73828 -0.71484,0.71484 -1.72266,1.13281 -2.73438,1.13281 -1.01562,0 -2.02343,-0.41797 -2.73828,-1.13281 z m 40.66016,-5.47656 c 0.71484,0.71875 1.13281,1.72656 1.13281,2.73828 0,1.01172 -0.41797,2.01953 -1.13281,2.73828 -0.71875,0.71484 -1.72656,1.13281 -2.73828,1.13281 -1.01172,0 -2.01953,-0.41797 -2.73438,-1.13281 -0.71875,0.71484 -1.72656,1.13281 -2.73828,1.13281 -1.01172,0 -2.01953,-0.41797 -2.73828,-1.13281 -0.71484,-0.71875 -1.13281,-1.72656 -1.13281,-2.73828 0,-1.01172 0.41797,-2.01953 1.13281,-2.73828 l -12.11719,-12.11719 5.47266,-5.47265 12.12109,12.11718 c 0.71485,-0.71484 1.72266,-1.13281 2.73438,-1.13281 1.01172,0 2.01953,0.41797 2.73828,1.13281 0.71484,0.71875 1.13281,1.72266 1.13281,2.73828 0,1.01172 -0.41797,2.01953 -1.13281,2.73438 z m -5.47266,-40.65625 c 0.71485,-0.718751 1.72266,-1.132814 2.73438,-1.132814 1.01172,0 2.01953,0.414063 2.73828,1.132814 0.71484,0.71484 1.13281,1.72266 1.13281,2.73437 0,1.01563 -0.41797,2.02344 -1.13281,2.73829 0.71484,0.71484 1.13281,1.72265 1.13281,2.73828 0,1.01172 -0.41797,2.01953 -1.13281,2.73437 -0.71875,0.71875 -1.72656,1.13281 -2.73828,1.13281 -1.01172,0 -2.01953,-0.41406 -2.73438,-1.13281 l -12.12109,12.1211 -5.47266,-5.47266 12.11719,-12.12109 c -0.71484,-0.71485 -1.13281,-1.72266 -1.13281,-2.73829 0,-1.01171 0.41797,-2.01953 1.13281,-2.73437 0.71875,-0.718751 1.72656,-1.132814 2.73828,-1.132814 1.01172,0 2.01953,0.414063 2.73828,1.132814 z m -40.66015,5.47266 c -0.71875,-0.71485 -1.13282,-1.72266 -1.13282,-2.73829 0,-1.01171 0.41407,-2.01953 1.13282,-2.73437 0.71484,-0.718751 1.72265,-1.132814 2.73437,-1.132814 1.01563,0 2.02344,0.414063 2.73828,1.132814 0.71485,-0.718751 1.72266,-1.132814 2.73828,-1.132814 1.01172,0 2.01954,0.414063 2.73438,1.132814 0.71875,0.71484 1.13281,1.72266 1.13281,2.73437 0,1.01563 -0.41406,2.02344 -1.13281,2.73829 l 12.12109,12.12109 -5.47265,5.47266 -12.1211,-12.1211 c -0.71484,0.71875 -1.72265,1.13281 -2.73828,1.13281 -1.01172,0 -2.01953,-0.41406 -2.73437,-1.13281 -0.71875,-0.71484 -1.13282,-1.72265 -1.13282,-2.73437 0,-1.01563 0.41407,-2.02344 1.13282,-2.73828 z m 17.59375,17.59375 5.47265,-5.47266 5.47266,5.47266 -5.47266,5.47265 z m 0,0"
       style="fill:#e6de00;fill-opacity:1;fill-rule:nonzero;stroke:none" />
    <path
       id="path121"
       d="m 489.13672,146.83203 c -0.71485,0.71484 -1.72266,1.13281 -2.73828,1.13281 -1.01172,0 -2.01953,-0.41797 -2.73438,-1.13281 -0.71875,-0.71875 -1.13281,-1.72656 -1.13281,-2.73828 0,-1.01172 0.41406,-2.01953 1.13281,-2.73828 -0.71875,-0.71485 -1.13281,-1.72266 -1.13281,-2.73438 0,-1.01562 0.41406,-2.01953 1.13281,-2.73828 0.71485,-0.71484 1.72266,-1.13281 2.73438,-1.13281 1.01562,0 2.02343,0.41797 2.73828,1.13281 l 12.12109,-12.11718 5.47266,5.47265 -12.1211,12.11719 c 0.71875,0.71875 1.13282,1.72656 1.13282,2.73828 0,1.01172 -0.41407,2.01953 -1.13282,2.73828 -0.71484,0.71484 -1.72265,1.13281 -2.73437,1.13281 -1.01563,0 -2.02344,-0.41797 -2.73828,-1.13281 z m 40.66015,-5.47656 c 0.71485,0.71875 1.13282,1.72656 1.13282,2.73828 0,1.01172 -0.41797,2.01953 -1.13282,2.73828 -0.71875,0.71484 -1.72656,1.13281 -2.73828,1.13281 -1.01172,0 -2.01953,-0.41797 -2.73437,-1.13281 -0.71875,0.71484 -1.72656,1.13281 -2.73828,1.13281 -1.01172,0 -2.01953,-0.41797 -2.73828,-1.13281 -0.71485,-0.71875 -1.13282,-1.72656 -1.13282,-2.73828 0,-1.01172 0.41797,-2.01953 1.13282,-2.73828 l -12.11719,-12.11719 5.47265,-5.47265 12.1211,12.11718 c 0.71484,-0.71484 1.72265,-1.13281 2.73437,-1.13281 1.01172,0 2.01953,0.41797 2.73828,1.13281 0.71485,0.71875 1.13282,1.72266 1.13282,2.73828 0,1.01172 -0.41797,2.01953 -1.13282,2.73438 z m -5.47265,-40.65625 c 0.71484,-0.718751 1.72265,-1.132814 2.73437,-1.132814 1.01172,0 2.01953,0.414063 2.73828,1.132814 0.71485,0.71484 1.13282,1.72266 1.13282,2.73437 0,1.01563 -0.41797,2.02344 -1.13282,2.73829 0.71485,0.71484 1.13282,1.72265 1.13282,2.73828 0,1.01172 -0.41797,2.01953 -1.13282,2.73437 -0.71875,0.71875 -1.72656,1.13281 -2.73828,1.13281 -1.01172,0 -2.01953,-0.41406 -2.73437,-1.13281 l -12.1211,12.1211 -5.47265,-5.47266 12.11719,-12.12109 c -0.71485,-0.71485 -1.13282,-1.72266 -1.13282,-2.73829 0,-1.01171 0.41797,-2.01953 1.13282,-2.73437 0.71875,-0.718751 1.72656,-1.132814 2.73828,-1.132814 1.01172,0 2.01953,0.414063 2.73828,1.132814 z m -40.66016,5.47266 c -0.71875,-0.71485 -1.13281,-1.72266 -1.13281,-2.73829 0,-1.01171 0.41406,-2.01953 1.13281,-2.73437 0.71485,-0.718751 1.72266,-1.132814 2.73438,-1.132814 1.01562,0 2.02343,0.414063 2.73828,1.132814 0.71484,-0.718751 1.72265,-1.132814 2.73828,-1.132814 1.01172,0 2.01953,0.414063 2.73437,1.132814 0.71875,0.71484 1.13282,1.72266 1.13282,2.73437 0,1.01563 -0.41407,2.02344 -1.13282,2.73829 l 12.1211,12.12109 -5.47266,5.47266 -12.12109,-12.1211 c -0.71485,0.71875 -1.72266,1.13281 -2.73828,1.13281 -1.01172,0 -2.01953,-0.41406 -2.73438,-1.13281 -0.71875,-0.71484 -1.13281,-1.72265 -1.13281,-2.73437 0,-1.01563 0.41406,-2.02344 1.13281,-2.73828 z m 17.59375,17.59375 5.47266,-5.47266 5.47265,5.47266 -5.47265,5.47265 z m 0,0"
       style="fill:#e6de00;fill-opacity:1;fill-rule:nonzero;stroke:none" />
  </g>
</svg>
